<?xml version="1.0" standalone="no"?>
<!DOCTYPE svg PUBLIC "-//W3C//DTD SVG 1.1//EN" "http://www.w3.org/Graphics/SVG/1.1/DTD/svg11.dtd" >
<!--
2013-9-30: Created.
-->
<svg>
<metadata>
Created by iconfont
</metadata>
<defs>

<font id="iconfont" horiz-adv-x="1024" >
  <font-face
    font-family="iconfont"
    font-weight="500"
    font-stretch="normal"
    units-per-em="1024"
    ascent="896"
    descent="-128"
  />
    <missing-glyph />
    
    <glyph glyph-name="x" unicode="x" horiz-adv-x="1001"
d="M281 543q-27 -1 -53 -1h-83q-18 0 -36.5 -6t-32.5 -18.5t-23 -32t-9 -45.5v-76h912v41q0 16 -0.5 30t-0.5 18q0 13 -5 29t-17 29.5t-31.5 22.5t-49.5 9h-133v-97h-438v97zM955 310v-52q0 -23 0.5 -52t0.5 -58t-10.5 -47.5t-26 -30t-33 -16t-31.5 -4.5q-14 -1 -29.5 -0.5
t-29.5 0.5h-32l-45 128h-439l-44 -128h-29h-34q-20 0 -45 1q-25 0 -41 9.5t-25.5 23t-13.5 29.5t-4 30v167h911zM163 247q-12 0 -21 -8.5t-9 -21.5t9 -21.5t21 -8.5q13 0 22 8.5t9 21.5t-9 21.5t-22 8.5zM316 123q-8 -26 -14 -48q-5 -19 -10.5 -37t-7.5 -25t-3 -15t1 -14.5
t9.5 -10.5t21.5 -4h37h67h81h80h64h36q23 0 34 12t2 38q-5 13 -9.5 30.5t-9.5 34.5q-5 19 -11 39h-368zM336 498v228q0 11 2.5 23t10 21.5t20.5 15.5t34 6h188q31 0 51.5 -14.5t20.5 -52.5v-227h-327z" />
    

    
    <glyph glyph-name="meifa" unicode="&#58881;" d="M929.792 53.24800000000005q19.456 11.264 36.352 6.656t29.184-18.432 19.456-33.792 7.168-40.448-7.68-37.888-24.064-25.6q-2.048-8.192-28.672-15.36-22.528-6.144-71.68-11.264t-140.288-4.096q-6.144-1.024-26.624-0.512t-47.104 5.12-55.808 15.36-52.736 29.696-37.888 48.64-11.264 72.704q-3.072 15.36-9.728 31.744t-6.144 38.4 14.336 51.2 53.76 69.12q15.36 25.6 11.264 45.056-3.072 17.408-24.064 30.72t-76.288 13.312q-58.368 4.096-94.208 27.648-15.36 10.24-28.16 25.088t-17.92 37.376-1.536 52.224 20.992 68.608q5.12 34.816-6.144 59.392-5.12 10.24-13.312 18.944t-21.504 14.336-32.768 6.656-47.104-5.12q2.048-10.24 2.048-23.552 0-11.264-1.024-28.672t-6.144-39.936q-6.144-23.552-10.752-40.448t-12.288-30.208-21.504-25.6-39.424-26.624q1.024-3.072 4.096-7.168 5.12-7.168 14.336-12.288 11.264-5.12 26.112-9.216t17.92-12.288q2.048-4.096 0-9.216t-4.608-10.752-4.608-10.752-1.024-8.192q2.048-6.144 6.144-7.168t4.096-3.072q-1.024 0-2.048-1.024-2.048-2.048-3.072-4.096-3.072-6.144-1.536-9.216t3.584-5.12 5.12-4.608 3.072-7.68q-5.12-22.528-2.048-40.96 2.048-15.36 11.776-29.696t33.28-16.384l174.08 0q25.6-49.152 35.84-101.376 4.096-22.528 4.608-47.104t-4.608-50.688-16.896-51.712-33.28-50.176q-31.744-18.432-69.632-25.6-32.768-6.144-76.288-3.072t-94.72 28.672q-20.48-14.336-37.888-13.312-15.36 0-29.696 14.848t-22.528 57.856q-25.6 26.624-29.696 50.176-2.048 10.24 0.512 20.48t12.8 19.456 28.672 17.408 48.128 13.312q25.6 16.384 29.696 34.816 4.096 16.384-13.312 37.888t-76.8 48.128q-58.368 35.84-78.848 84.992-9.216 20.48-10.752 46.08t9.728 56.32 37.376 66.56 73.216 75.776q11.264 8.192 18.432 20.48 6.144 11.264 10.24 28.16t1.024 41.472q-27.648 52.224-29.696 99.328-1.024 19.456 3.584 40.448t17.92 39.936 36.864 34.304 61.44 25.6q26.624 18.432 53.248 25.6 23.552 6.144 49.664 3.072t47.616-28.672q55.296 21.504 109.568 27.648 22.528 3.072 47.616 2.048t50.176-7.168 48.128-18.432 43.52-33.792q63.488-3.072 111.616-41.984 20.48-16.384 39.424-42.496t33.28-64.512 21.504-90.624 4.096-120.832q67.584-66.56 98.304-131.072 13.312-27.648 19.456-57.856t0.512-59.904-26.624-58.368-61.952-53.248q-26.624-3.072-46.08-14.336-17.408-9.216-31.744-27.136t-12.288-48.64q-1.024-17.408 4.096-29.696 5.12-11.264 17.408-20.48t38.912-10.24q6.144 7.168 9.216 12.288 2.048 5.12 1.024 9.728t-10.24 8.704q-5.12 14.336-3.072 26.624 1.024 11.264 8.192 20.48t24.576 12.288q-1.024 0 0.512 0.512t-0.512-0.512z"  horiz-adv-x="1024" />

    
    <glyph glyph-name="shukuzhuanhuan" unicode="&#58882;" d="M942.522368 888.84224L537.631744 762.314752c-10.601472-2.842624-40.009728-2.965504-50.612224 0L82.128896 888.84224c-36.352 10.008576-75.917312-22.166528-75.917312-59.582464l0-768.684032c0-31.706112 24.044544-62.004224 54.639616-70.5536l400.862208-113.405952c16.434176 0 36.056064 0 50.612224 0 9.960448 0 7.785472 0 25.306112 0l425.996288 113.577984c30.666752 8.303616 54.811648 38.552576 54.811648 70.381568L1018.43968 829.259776C1018.43968 866.637824 978.701312 898.690048 942.522368 888.84224zM82.128896 28.449792000000002c-3.039232 0.83968-25.306112 22.117376-25.306112 25.306112L56.822784 838.23104l430.196736-126.528512 0-784.47616L82.128896 28.449792000000002zM967.827456 53.75590399999999c0-3.13856-22.290432-24.466432-25.305088-25.306112l-404.890624-101.223424 0 784.47616L967.827456 838.23104 967.827456 53.75590399999999zM640.73216 522.7755520000001c2.8416 0 5.757952 0.369664 8.598528 1.173504l221.228032 62.26432c16.80384 4.757504 26.591232 22.204416 21.896192 38.995968-4.745216 16.792576-22.316032 26.554368-38.996992 21.88288L632.230912 584.827904c-16.828416-4.757504-26.614784-22.191104-21.895168-38.995968C614.264832 531.88096 626.942976 522.7755520000001 640.73216 522.7755520000001zM640.73216 333.106176c2.8416 0 5.757952 0.370688 8.598528 1.163264l221.228032 62.273536c16.80384 4.769792 26.591232 22.192128 21.896192 38.996992-4.745216 16.791552-22.316032 26.540032-38.996992 21.88288L632.230912 395.159552c-16.828416-4.769792-26.614784-22.192128-21.895168-38.996992C614.264832 342.20032000000003 626.942976 333.106176 640.73216 333.106176zM640.73216 143.43679999999995c2.8416 0 5.757952 0.370688 8.598528 1.163264l221.228032 62.273536c16.80384 4.770816 26.591232 22.193152 21.896192 38.996992-4.745216 16.780288-22.316032 26.54208-38.996992 21.870592L632.230912 205.4656c-16.828416-4.744192-26.614784-22.166528-21.895168-38.972416C614.264832 152.531968 626.942976 143.43679999999995 640.73216 143.43679999999995zM396.374016 584.827904l-221.227008 62.263296c-16.681984 4.671488-34.277376-5.090304-38.972416-21.88288-4.745216-16.791552 5.042176-34.239488 21.870592-38.995968l221.228032-62.26432c2.840576-0.80384 5.756928-1.173504 8.574976-1.173504 13.789184 0 26.491904 9.106432 30.396416 23.057408C422.989824 562.6368 413.202432 580.071424 396.374016 584.827904zM396.374016 395.159552l-221.227008 62.263296c-16.681984 4.658176-34.277376-5.090304-38.972416-21.88288-4.745216-16.804864 5.042176-34.2272 21.870592-38.996992l221.228032-62.273536c2.840576-0.791552 5.756928-1.163264 8.574976-1.163264 13.789184 0 26.491904 9.095168 30.396416 23.057408C422.989824 372.9664 413.202432 390.38976 396.374016 395.159552zM396.374016 205.4656L175.147008 267.742208c-16.681984 4.671488-34.277376-5.091328-38.972416-21.870592-4.745216-16.80384 5.042176-34.226176 21.870592-38.996992l221.228032-62.273536c2.840576-0.791552 5.756928-1.163264 8.574976-1.163264 13.789184 0 26.491904 9.095168 30.396416 23.057408C422.989824 183.29907200000002 413.202432 200.721408 396.374016 205.4656z"  horiz-adv-x="1024" />

    
    <glyph glyph-name="dagou" unicode="&#58958;" d="M936.0407574 758.38643029L342.40768463 164.69338850999998 87.9592426 419.14183053 3.16308492 334.34567287000004 342.40768463-4.898926869999968 427.20384233 79.89723083000001 1020.83691508 673.53030358Z"  horiz-adv-x="1024" />

    
    <glyph glyph-name="yinliao" unicode="&#58987;" d="M324.38653 703.510988l12.402471 0L307.503001 817.267844c35.161824 6.325056 72.118528 3.63683 110.669542-9.363252l-47.01785-104.393605 34.56626 0 86.710874 86.661755c-39.992853 34.365692-89.700975 51.599192-139.406027 51.599192-54.786791 0-109.672842-20.918425-151.510716-62.756299l0 0 0 0c-41.786709-41.835827-62.705134-96.67276-62.705134-151.509692 0-49.707099 17.183358-99.362009 51.54905-139.356908l104.195084 104.144942-2.441609 24.853038-117.293403-48.759517c-11.205203 33.916461-13.746072 70.823022-6.375198 110.817921l121.028471-34.963303-1.791809 18.826787-0.9967 10.009981-101.704356 57.077973c19.723204 29.78435 47.166229 54.537104 83.176374 73.463152l40.542368-100.109022L324.38653 703.510988 324.38653 703.510988zM455.974497 201.467757l15.489786-161.671123 0-47.315632L714.516902-7.5189980000000105l0 53.841256L755.357052 501.696586l-22.262026 0 17.977443 127.801734 68.036559 0-58.075697-599.265506-0.298805-3.038196 0-0.448208 0-77.248362L423.449733-50.50195199999996l0 77.248362 0 0.448208-0.248663 3.038196-54.936193 565.994752 33.269731 33.269731 274.930653 0L658.535913 501.696586l-93.78499 0 0.050142-0.199545-27.493168 0-0.100284 0.199545-49.306986 0-0.100284-0.099261L460.307176 501.597325l0 0.099261-33.07121 0 9.362228-98.018408L455.974497 201.467757 455.974497 201.467757zM475.548298 703.510988l211.32501 0 9.812483 70.076008 2.988054 20.668739 19.174712 8.218172L901.638673 880.820276l28.936029-67.935252-163.563216-70.127174-5.578042-39.246863 98.317213 0 40.692794 0-3.934612-40.442084-61.761646-636.818797 0-113.756857 0-37.054941-36.954657 0L386.495076-124.561691l-37.055964 0 0 37.054941L349.439112 26.24908300000004l-48.710398 502.443343-93.236498-93.236498-16.933671-16.933671-17.532305 16.535605-2.937912 2.837628-0.099261 0.100284c-2.440585 2.340301-2.939959 2.738367-3.338025 3.137457l0 0.050142c-51.498908 51.449789-77.19822 118.886691-77.19822 186.323593 0 67.487044 25.699312 134.924969 77.19822 186.373735l0 0 0 0c51.449789 51.498908 118.936833 77.199243 186.374758 77.199243 67.436902 0 134.874827-25.701358 186.372711-77.199243l0 0c0.448208-0.398066 0.847298-0.896416 3.187599-3.287883l0.100284-0.099261 2.789533-2.988054 16.536628-17.482163-16.935718-16.933671L475.548298 703.510988z"  horiz-adv-x="1024" />

    
    <glyph glyph-name="geren" unicode="&#58948;" d="M512-128C794.308608-128 1024 101.69344000000001 1024 384 1024 666.30656 794.308608 896 512 896S0 666.30656 0 384C0 101.69344000000001 229.691392-128 512-128L512-128zM512 832c247.044096 0 448.002048-200.955904 448.002048-448 0-247.037952-200.957952-448.002048-448.002048-448.002048S64 136.96204799999998 64 384C64 631.0440960000001 264.955904 832 512 832L512 832zM512 696.004608c102.047744 0 184.80128-82.05312 184.80128-183.302144 0-101.218304-82.716672-183.26528-184.80128-183.26528-102.078464 0-184.768512 82.05312-184.768512 183.26528C327.231488 613.9514879999999 409.954304 696.004608 512 696.004608L512 696.004608zM512 381.825024c72.900608 0 132.001792 58.619904 132.001792 130.914304 0 72.318976-59.101184 130.90816-132.001792 130.90816s-132.001792-58.621952-132.001792-130.90816C379.998208 440.414208 439.099392 381.825024 512 381.825024L512 381.825024zM512 381.825024c145.825792 0 264.003584-117.21728 264.003584-261.828608l-52.805632 0c0 115.648512-94.55616 209.440768-211.197952 209.440768s-211.202048-93.790208-211.202048-209.440768l-52.799488 0C247.998464 264.607744 366.174208 381.825024 512 381.825024L512 381.825024zM512 381.825024"  horiz-adv-x="1024" />

    
    <glyph glyph-name="nan" unicode="&#58890;" d="M441.72355497 759.56175367c242.40913762 4.32486004 443.16311466-189.37535796 447.48166596-431.79080307 4.32359754-242.42049257-189.36904925-443.16689964-431.78449558-447.48545094-242.41544511-4.33116751-443.16816089 189.367788-447.49302092 431.78954181-4.32486004 242.40913762 189.367788 443.16816089 431.78954181 447.49302092L441.72355497 759.56175367zM456.37231333-61.61528613999997c210.38902812 3.74577237 378.48451201 177.9601503 374.72612218 388.34539346-3.76343482 210.38145816-177.97150526 378.48324953-388.35170092 374.71981472-210.37514945-3.75712733-378.48324953-177.97150526-374.72486095-388.34791597C71.77900097 102.71423919999995 245.9933789-65.37998220999998 456.37231333-61.61528613999997L456.37231333-61.61528613999997zM442.15503195 736.03870613c229.45348366 4.08262726 419.43946793-179.24953385 423.53975889-408.71058748 4.09524347-229.45348366-179.2356564-419.45208412-408.69797007-423.55237505-229.44717495-4.08893475-419.45208412 179.2356564-423.55237505 408.69797003-4.09902845 229.4610524 179.24953385 419.46470156 408.70427877 423.55868255L442.15503195 736.03870613zM456.80379032-85.13833366999995c223.34215835 3.98800515 401.81200658 188.93883473 397.83157142 412.28730179-3.98800515 223.35477455-188.93252601 401.81957655-412.28730179 397.8441876C219.0059016 721.00388934 40.52343716 536.0517985 44.51018105 312.69828521 48.49187749 89.34981815000003 233.44270707-89.12003010000001 456.80379032-85.13833366999995L456.80379032-85.13833366999995zM978.33795358 897.48541186c7.75143996 0.13877944 15.10925275-2.7339477 20.68817023-8.1374984 11.52749221-11.12755633 11.84416092-29.55488943 0.73426705-41.0899516L772.92226163 613.1713121600001c-5.38210327-5.58270247-12.63520148-8.72415478-20.38159521-8.86798045-7.77036488-0.14256441-15.11808396 2.74277892-20.68690899 8.13875964-5.59153367 5.38967323-8.73172475 12.63141649-8.88059665 20.39421142-0.13751695 7.75270245 2.74908642 15.11177649 8.13749841 20.68817024L957.95383464 888.60607646c5.38588825 5.58270247 12.63898523 8.72415478 20.38411772 8.8667192L978.33795358 897.48541186zM978.7429357 873.96236433c1.41302306 0.01892492 2.84749351-0.49329675 3.93754036-1.54423251 2.20027861-2.12584267 2.26209837-5.62812103 0.14508691-7.82082969L755.988695 629.50938996c-2.12584267-2.20027861-5.62181231-2.26840708-7.82335342-0.14382567-2.19775489 2.12458141-2.26209837 5.61550483-0.14256442 7.82082969l226.83686799 235.08791217C975.93833703 873.36561424 977.32234269 873.93839317 978.7429357 873.96236433L978.7429357 873.96236433zM978.7429357 873.96236433M958.34746305 889.57374505c5.38210327 5.57891748 12.61753782 8.75064967 20.38285645 8.87555042 16.02014782 0.2826051 29.27354682-12.5229157 29.57381436-28.53549479l5.83376645-326.63035385c0.14256441-7.75396369-2.76548758-15.10420653-8.14128339-20.683124-5.39345822-5.59531866-12.62889276-8.75064967-20.38285646-8.87302668-7.76531865-0.14256441-15.10546776 2.75665638-20.70078643 8.14128338-5.57891748 5.38462701-8.74181845 12.62889276-8.87428917 20.38285645l-5.82493523 326.63035385c-0.14004069 7.75648743 2.76801132 15.10546776 8.1438071 20.68312401L958.34746305 889.57374505zM631.888691 842.65759696c-5.57891748 5.38336576-8.75064967 12.61753782-8.87555042 20.38285647-0.2826051 16.02014782 12.5229157 29.27354682 28.53549479 29.57381435l326.63035386 5.83376644c7.75396369 0.14256441 15.10420653-2.76548758 20.68312398-8.14128338 5.59531866-5.39345822 8.75064967-12.62889276 8.8730267-20.38285645 0.14256441-7.76531865-2.75665638-15.10546776-8.14128339-20.70078643-5.38462701-5.57891748-12.62889276-8.74181845-20.38285646-8.87555044l-326.63035385-5.82493522c-7.75648743-0.14004069-15.10546776 2.76801132-20.68312401 8.14380711L631.888691 842.65759696z"  horiz-adv-x="1024" />

    
    <glyph glyph-name="wenhao" unicode="&#59007;" d="M510.68656592 885.71343936c276.74718512-0.03094448 502.61886079-226.03442177 502.07331552-502.36671856-0.54898368-277.35805776-226.05963631-502.70481857-502.3988088-502.02976432-277.15749041 0.67620112-501.42003744 225.07054976-501.7867904 502.08363072C8.20638352 659.90823792 233.95198753 885.74438384 510.68656592 885.71343936zM965.34789584 383.5908416C965.30778192 634.0131883199999 762.49684352 837.54731744 510.93527088 838.0630639999999c-250.7581552 0.51345392-454.63611535-203.0034832-454.8985728-454.485976-0.26131169-250.4464144 203.22238944-453.7857072 454.35417327-454.50087536C760.52669296-71.63666288000002 965.38800864 133.0252312 965.34789584 383.5908416zM538.65033168 221.2636976c-21.44014769 0-42.30838976 0-63.77145936 0 0 12.737788-0.68078527 25.24177152 0.14326256 37.64604368 1.66299504 25.04807984 7.4565456 49.07268912 20.54504144 70.89678176 10.18541664 16.9841 23.15586336 31.64046368 37.56581584 45.10946608 17.89639711 16.72737248 36.00597056 33.23927712 53.54707568 50.3322568 10.3286792 10.06393025 19.50896416 21.29000832 24.2813368 35.26100255 11.43237648 33.46964431 4.12367872 63.35771681-18.14280943 89.977104-36.97786512 44.20633615-98.823872 45.72033872-136.69684449 23.59482161-23.87103264-13.94463504-38.18356528-35.28277872-46.53865551-60.94402385-3.7454648-11.50458176-6.33221904-23.38623056-9.68915473-36.01399311-22.00976064 2.61311456-44.53870624 5.2881192-67.91233007 8.06283409 0.87218431 5.83022608 1.49681056 11.31203585 2.53403359 16.71476575 5.81991088 30.30754608 16.33998912 58.57273744 36.12401856 82.81625297 24.10139873 29.53392624 55.50118112 46.73005567 92.48936144 53.82901663 38.60762416 7.409556 77.19003264 6.60957584 114.7352192-5.58495952 48.07099584-15.61221425 83.64144656-46.11803616 99.80608287-94.71165536 15.51937968-46.65326623 7.89435696-90.72436241-22.65387039-130.09414543-19.37830831-24.9747288-43.47856128-45.26533536-66.12670175-67.01149282-9.96307312-9.56652144-20.04304848-19.19264033-28.6972717-29.89953343-12.85469024-15.90217888-17.76115712-35.134932-19.31068831-55.2444536C540.0061712 244.64648976 539.41134368 233.27027120000002 538.65033168 221.2636976zM470.73685584 86.37081920000003c0 25.19363504 0 50.14429616 0 75.50067728 25.24291728 0 50.18784736 0 75.55339792 0 0-25.1168456 0-50.07438353 0-75.50067728C521.19403744 86.37081920000003 496.10469792 86.37081920000003 470.73685584 86.37081920000003z"  horiz-adv-x="1024" />

    
    <glyph glyph-name="xiyifuwu" unicode="&#58975;" d="M512.60368669 229.19882297000004c-88.42471651 0-176.84943303 0-265.25552072 0.01280682-12.25187669 0-12.29029831 0.01979278-12.29029831 12.34851386 0.05122845 146.95033629 0.0896512 293.90183538 0.17930127 440.85217166 0.03842162 34.23958926-15.05200697 49.36843833-50.87154404 49.49069027-44.5272997 0.15368647-89.05460053-0.28990919-133.56792832-0.46921045-13.40918557-0.04540757-13.40918557-0.03260075-13.40918556 12.88758158 0 46.06766194 0.12807282 92.14929579-0.16649444 138.23092964-0.05122845 7.48059534 1.74644224 10.29353245 9.77425749 10.2749036 117.98966045-0.22470883 235.99212885-0.19327317 353.97480335-0.03260074 6.42225152 0.01280683 9.29805995-2.37632626 11.45666332-8.21293739 21.70478819-58.65369145 43.58887765-117.25149753 65.69185508-175.76430933 3.37761963-8.9511003 7.20465806-18.05123015 12.5860295-25.87296427 12.30310627-17.90918656 30.16804921-17.61345536 42.60039112 0.23169479 3.50685639 5.03441181 6.15213511 10.84540814 8.28395975 16.63894073 22.34631509 60.73545159 44.68098731 121.47672405 66.53946197 182.39147691 2.9293659 8.16869376 6.8460544 10.69754254 15.43738823 10.67309284 117.05240349-0.2957312 234.11761379-0.19909405 351.18282411-0.22470884 12.99702557 0 12.99702557-0.01280683 12.99702556-13.29857764 0-45.45174983-0.2957312-90.91630763 0.24333768-136.36805746 0.11642994-9.80569315-3.01785315-11.89327417-12.21345508-11.80944497-49.80504917 0.41681806-99.61126343 0.21190201-149.42911943 0.19327317-22.41151545-0.01979278-37.10375481-15.05200697-37.07814002-37.62302976 0.28175929-150.05900345 0.51229013-300.12382891 0.76959858-450.19563918 0.02561479-14.32082887 0-14.33945771-14.04954852-14.35226567C688.19568071 229.19882297000004 600.39968427 229.19882297000004 512.60368669 229.19882297000004zM514.96720611-124.48723513000004c-112.71074702 0-225.41450809 0.74514887-338.12641905-0.38538126-42.65162069-0.43661085-82.60673422 26.3934043-96.29767908 67.66999324-7.07658525 21.28098531-9.32367474 44.29676999-12.47076465 66.70712036-13.79340402 98.62277689-27.16300402 197.29561827-40.57102564 295.98941639-2.55562752 18.72535779-2.80012914 15.77154105 14.26843534 15.98344192 10.27490361 0.12807282 20.58706489-0.55769771 30.81074006 0.20608 8.57968981 0.64269085 11.19935374-2.83855189 12.14941866-10.83958727 5.98564067-49.74916381 12.36830663-99.45757582 18.67412822-149.14736014 7.41073806-58.35912533 14.56416654-116.74502941 22.44993706-175.03895438 3.90388167-28.80698823 27.22703929-48.22626531 56.21449387-48.23907215 221.99963079-0.02561479 443.99227563-0.07684323 665.99772729 0.24333767 9.69741312 0.02561479 19.65097187 2.90258717 29.01306823 5.9076335 10.54502002 3.39042759 16.96494365 12.02134585 19.07231744 22.56520192 3.15989675 15.82393458 5.60025941 31.85045504 7.29547321 47.89327644 10.53104925 99.35395385 20.83156765 198.73352249 30.99004131 298.12706304 0.65549767 6.36403712 3.12147513 8.53428224 9.36209636 8.4248394 15.56662499-0.30271715 31.13208491-0.28874525 46.69754595 0 6.51190272 0.12807282 7.86015573-2.47878429 7.07658525-8.4830538-9.78590037-75.29961813-19.40647026-150.61670115-29.06429781-225.92912612-5.29172139-41.36740295-10.91643051-82.69638429-15.75873309-124.11734584-6.40827961-54.76261774-42.66442752-87.538688-97.76119808-87.538688C741.64846706-124.50004308999996 628.32064398-124.48723513000004 514.96720611-124.48723513000004zM885.05468814 250.92922595000005c-1.79883577-18.20491776-3.3147483-33.5584768-4.85511054-48.92018574-0.25730958-2.47878429-1.13053013-4.99599019-0.87322169-7.40957411 2.40194105-22.14256299-10.22251008-35.16403939-26.55989874-47.22497195-28.15265451-20.76753123-56.56145351-40.72587719-90.13273714-52.07775346-47.01889195-15.88796985-92.81760142-9.79987115-137.71747555 7.94980694-17.88939378 7.0754213-34.84269341 16.55511154-52.66805077 23.83661283-37.14217643 15.20685739-75.49289131 15.60388267-113.52109625 4.68745216-24.13234403-6.94851243-47.23661483-17.35032491-71.03480491-25.58421902-52.88810269-18.28874695-104.68991773-13.42082958-153.88021988 11.71397291-26.45627677 13.52328647-50.84592925 31.14372893-76.08202467 47.07012039-2.20866787 1.39948259-4.88072533 3.8084096-5.29172139 6.12652032-4.25084131 24.40828131-8.09068658 48.89340587-10.12005205 74.54748331 2.74773675-2.18305309 5.48382947-4.42432171 8.27115179-6.57011712 21.98771257-16.83104882 43.25588992-34.67620011 66.10285112-50.22303119 50.1135872-34.10453049 105.39664498-41.36041699 163.37038906-26.07788032 29.12833309 7.66804765 57.52432526 18.08965177 86.15201222 27.60659968 45.82432427 15.24527901 89.28513024 9.42031075 131.7702565-12.54062193 21.19017017-10.95485213 42.81811513-22.09017059 65.52536178-28.80698824 48.10983538-14.2172069 92.16093867-0.62871893 133.10570382 25.71229184 29.51371549 18.98848825 55.14799901 42.54217671 79.38280107 67.74800043C878.22144057 244.8027045 880.71303168 246.89610752 885.05468814 250.92922595000005zM156.42021547 120.72610929999996c8.12910819-4.84230258 13.66416725-8.07787861 19.14916067-11.39146297 19.95834595-12.09935417 39.91669191-24.18357248 59.86222991-36.32018432 53.19547677-32.36507421 109.04438215-35.15123143 166.91566705-14.91112619 18.80220103 6.57477405 37.64282368 13.06106197 56.21449387 20.21449045 48.49521778 18.6601563 94.99949056 12.65006592 141.017088-9.11875868 21.02483968-9.94075079 42.63997781-19.39249835 64.90944967-25.78797113 45.27244857-12.99702557 88.66805419-4.22639161 128.32860046 19.52173511 24.17076565 14.47451648 46.17011997 32.58279709 69.10789746 49.09948701 2.69650717 1.93855147 5.17529145 4.19844779 9.90232917 8.06507179-0.60426923-7.75653376-0.87322169-13.08667677-1.43790421-18.39120498-1.79767182-16.38745315-3.46843477-32.80168505-5.72833109-49.12393672-0.51345408-3.66170795-2.33790464-8.12910819-5.08564025-10.33894001-31.77361181-25.60983381-65.89793621-46.88965518-106.35369586-56.11087189-37.2958629-8.51448946-74.14347321-5.52341618-110.78383843 4.13557646-21.6547237 5.71436032-42.67723549 12.65006592-62.79043186 23.09146396-37.06533319 19.22716899-76.54541426 20.66507321-116.30725462 9.91513714-18.84062265-5.08564025-37.19340601-12.2262619-55.48215182-19.20039026-64.54851811-24.59456853-127.01178311-18.54489145-187.42588871 13.0738688-17.04295083 8.91267869-32.95537152 19.99676757-49.24036665 30.3100928-2.49159111 1.57878386-5.75394589 4.09715485-6.11254954 6.54915926C161.99369614 75.18470940999998 159.47649024 96.42727196999999 156.42021547 120.72610929999996z"  horiz-adv-x="1024" />

    
    <glyph glyph-name="fankui1" unicode="&#59192;" d="M839.7228123-120.40334336000001L184.2771877-120.40334336000001c-60.27986034 0-109.20831886 48.92845853-109.20831887 109.20831886l0 728.05545642c0 60.27986034 48.92845853 109.20831886 109.20831887 109.20831887l509.63881984 0c20.1585243 0 36.40277333-16.24424789 36.40277333-36.40277333s-16.24424789-36.40277333-36.40277333-36.40277334L184.2771877 753.26320526c-19.96281059 0-36.40277333-16.4399616-36.40277333-36.40277334l0-728.05545642c0-20.1585243 16.4399616-36.40277333 36.40277333-36.40277334l655.24991089 0c20.1585243 0 36.40277333 16.24424789 36.40277334 36.40277334L875.92987193 571.44505458c0 20.1585243 16.24424789 36.40277333 36.40277333 36.40277333 20.1585243 0 36.40277333-16.24424789 36.40277333-36.40277333l0-582.44436538C948.93113117-71.27917113000001 899.80695893-120.40334336000001 839.7228123-120.40334336000001zM625.80759325 462.23673571c-9.39426361 0-18.59281465 3.52284899-25.83422635 10.76426069-14.28710969 14.28710969-14.28710969 37.18562816 0 51.47273786L961.84824377 886.15289742c14.28710969 14.28710969 37.18562816 14.28710969 51.47273785 0s14.28710969-37.18562816 0-51.47273785L651.44610589 472.8052827C644.40040789 465.75958471 635.00614315 462.23673571 625.80759325 462.23673571zM475.49936981 462.23673571L257.08273323 462.23673571c-20.1585243 0-36.40277333 16.24424789-36.40277334 36.40277333s16.24424789 36.40277333 36.40277334 36.40277334L475.49936981 535.04228124c20.1585243 0 36.40277333-16.24424789 36.40277334-36.40277333C511.90214315 478.4809836 495.65789525 462.23673571 475.49936981 462.23673571zM694.11172125 243.82009912L257.08273323 243.82009912c-20.1585243 0-36.40277333 16.24424789-36.40277334 36.40277334s16.24424789 36.40277333 36.40277334 36.40277333l436.83327431 0c20.1585243 0 36.40277333-16.24424789 36.40277333-36.40277333S714.07453184 243.82009912 694.11172125 243.82009912z"  horiz-adv-x="1024" />

    
    <glyph glyph-name="shenfen" unicode="&#59213;" d="M139.07064342-71.00215164999997c-75.19672317 0-136.34570742 61.14898425-136.34570741 136.34570741L2.72493601 664.02516129c0 75.19672317 61.14898425 136.34570742 136.34570741 136.34570741L887.31935822 800.3708687c75.19672317 0 136.34570742-61.14898425 136.34570741-136.34570741l0-598.68160553c0-75.19672317-61.14898425-136.34570742-136.34570741-136.34570741L139.07064342-71.00215164999997zM139.07064342 727.23998947c-34.70618057 0-63.21482818-28.30206333-63.21482815-63.21482818l0-598.68160553c0-34.70618057 28.30206333-63.21482818 63.21482815-63.21482817L887.31935822 2.1287275900000395c34.70618057 0 63.21482818 28.30206333 63.21482817 63.21482817L950.53418639 664.02516129c0 34.70618057-28.30206333 63.21482818-63.21482817 63.21482818L139.07064342 727.23998947zM837.53251616 153.55509648999998c-20.2452719 0-36.56544022 16.52675259-36.56544022 36.56544023 0 62.38848988-50.61317914 113.00166902-113.00166903 113.00166901s-113.00166902-50.61317914-113.00166902-113.00166901c0-20.2452719-16.52675259-36.56544022-36.56544023-36.56544023-20.2452719 0-36.56544022 16.52675259-36.56544022 36.56544023 0 63.83458099 32.84692092 122.71113703 86.9720351 156.79756357-23.75720694 25.20329684-36.97860877 58.25680203-36.97860877 92.75639834 0 75.19672317 61.14898425 136.34570742 136.34570741 136.3457074s136.34570742-61.14898425 136.34570742-136.3457074c0-34.49959509-13.42798611-67.34651602-36.97860877-92.75639834 53.9185299-34.08642655 86.97203511-92.75639833 86.97203511-156.79756357C874.30454066 170.08184909 857.77778806 153.55509648999998 837.53251616 153.55509648999998zM687.96540691 502.68274132c-34.70618057 0-63.21482818-28.30206333-63.21482818-63.21482817s28.30206333-63.21482818 63.21482818-63.21482817c34.91276485 0 63.21482818 28.30206333 63.21482818 63.21482817S722.67158748 502.68274132 687.96540691 502.68274132zM409.28304458 501.85640303L185.55213353 501.85640303c-21.27819326 0-38.42469987 17.14650541-38.42469987 38.42469988 0 21.27819326 17.14650541 38.42469987 38.42469987 38.42469988l223.73091105 0c21.27819326 0 38.42469987-17.14650541 38.42469989-38.42469988C447.70774447 519.00290845 430.56123904 501.85640303 409.28304458 501.85640303zM409.28304458 326.46624292L185.55213353 326.46624292c-21.27819326 0-38.42469987 17.14650541-38.42469987 38.42469987s17.14650541 38.42469987 38.42469987 38.42469989l223.73091105 0c21.27819326 0 38.42469987-17.14650541 38.42469989-38.42469989S430.56123904 326.46624292 409.28304458 326.46624292zM409.28304458 152.93534247000002L185.55213353 152.93534247000002c-21.27819326 0-38.42469987 17.14650541-38.42469987 38.42469987s17.14650541 38.42469987 38.42469987 38.42469987l223.73091105 0c21.27819326 0 38.42469987-17.14650541 38.42469989-38.42469987S430.56123904 152.93534247000002 409.28304458 152.93534247000002z"  horiz-adv-x="1024" />

    
    <glyph glyph-name="wxbzhanghu" unicode="&#58910;" d="M973.82520035 799.00947911L75.11050695 799.00947911c-36.51229241 0-66.20530915-29.66856704-66.20530916-66.13428793l0-645.64235719c0-36.46222791 29.69301675-66.13428793 66.20530916-66.13428793l898.7146934 0c36.56002901 0 66.18318848 29.66973099 66.18318848 66.13428793L1040.00838883 732.87519118C1040.00722375 769.3409120700001 1010.38522937 799.00947911 973.82520035 799.00947911M991.0043739 87.23283399000002c0-9.37956125-7.70414023-17.13143694-17.18033749-17.13143694L75.11050695 70.10139704999995c-9.45174755 0-17.20362325 7.75187683-17.20362325 17.13143694L57.90688256 732.87519118c0 9.37956125 7.75187683 17.13260203 17.20362325 17.13260203l898.71469341 0c9.47619726 0 17.18033749-7.75304078 17.18033749-17.13260203L991.00553785 87.23283399000002zM421.78518016 385.07580871c35.93713095 27.46804907 59.62587819 70.34554254 59.62587819 118.868703 0 82.69056341-67.23454635 149.97401031-149.87853824 149.97401032-82.64399189 0-149.87853824-67.28228295-149.87853824-149.97401032 0-48.52316046 23.66313245-91.40065394 59.62587818-118.868703-80.10699207-34.93350855-136.35874361-114.75292046-136.3587436-207.68462279 0-13.49534379 10.93505934-24.50142549 24.50142549-24.50142549 13.51862955 0 24.50142549 11.00608057 24.50142549 24.50142549 0 96.37685134 77.16249031 174.66637995 172.87103602 177.15331413 1.62652046 0 3.11099619-0.47736149 4.73751666-0.47736149 1.62535538 0 3.11099619 0.47736149 4.68745216 0.47736149 95.80285383-2.48926322 172.94322233-80.77646165 172.94322232-177.15331413 0-13.49534379 10.9583451-24.50142549 24.5014255-24.50142549s24.50142549 11.00608057 24.50142549 24.50142549C558.16837347 270.32288825 501.89217223 350.14230016 421.78518016 385.07580871M230.6579968 503.94334777c0 55.70220373 45.22122013 100.97232441 100.87685234 100.97232441 55.60556771 0 100.87568725-45.27012067 100.87568725-100.97232441 0-53.97788331-42.78085746-97.81242766-96.1859072-100.39599787-1.57645597 0.09547207-3.06209565 0.47852544-4.68745216 0.47852544-1.62652046 0-3.11216014-0.38305337-4.73751666-0.47852544C273.39111879 406.13208519 230.6579968 449.96546446 230.6579968 503.94334777M892.99983815 609.12576285L565.3462528 609.12576285c-13.59081586 0-24.50142549-11.00608057-24.50142549-24.50026042 0-13.49534379 10.9106085-24.50142549 24.50142549-24.50142549l327.65358535 0c13.54424434 0 24.50142549 11.00608057 24.5014255 24.50142549C917.50126251 598.11968114 906.54408249 609.12576285 892.99983815 609.12576285M892.99983815 458.00375751L565.3462528 458.00375751c-13.59081586 0-24.50142549-10.9106085-24.50142549-24.50026041 0-13.49534379 10.9106085-24.50142549 24.50142549-24.50142549l327.65358535 0c13.54424434 0 24.50142549 11.00608057 24.5014255 24.50142549C917.50126251 447.09314901 906.54408249 458.00375751 892.99983815 458.00375751M892.99983815 306.88291726L614.3479387 306.88291726c-13.58965191 0-24.50026041-10.9106085-24.50026041-24.50026041 0-13.49534379 10.9106085-24.50142549 24.50026041-24.50142549l278.65189945 0c13.54424434 0 24.50142549 11.00608057 24.5014255 24.50142549C917.50126251 295.97114367999995 906.54408249 306.88291726 892.99983815 306.88291726"  horiz-adv-x="1024" />

    
    <glyph glyph-name="wxbzhuye" unicode="&#58912;" d="M1014.90388499 391.39913955L515.42829245 890.77809493 17.40807016 392.78115839c-9.51578397-9.53906973-9.51578397-24.99275776 0-34.5306624 9.58564125-9.54139762 25.01720747-9.54139762 34.5306624 0l86.80867499 86.75861049L138.74740755-52.98783118999995c0-34.24657522 27.83014457-62.10000555 62.07671978-62.10000554l636.26745288 0c34.24657522 0 62.10000555 27.85343033 62.10000554 62.10000554L899.19158461 437.99772045l81.18163683-81.13157233c4.7223808-4.81785287 10.96998798-7.10685696 17.26533178-7.10685696 6.19987171 0 12.49521437 2.29016803 17.26649571 7.10685696C1024.44295357 366.35748236999996 1024.44295357 381.85890587999995 1014.90388499 391.39913955M850.35173622-52.98783118999995c0-7.29896619-5.96235491-13.26015602-13.2613211-13.26015602L200.82412619-66.24798721000002c-7.29896619 0-13.23570631 5.96119097-13.2357063 13.26015602L187.58842102 493.84895487l327.83987257 327.91322283L850.35173622 486.83756999 850.35173622-52.98783118999995 850.35173622-52.98783118999995zM378.25454269 426.57132885c0-76.0284672 61.81358819-137.89095595 137.89095595-137.89095595 76.07503872 0 137.889792 61.86248875 137.889792 137.89095595 0 76.02613817-61.81475328 137.84089145-137.889792 137.84089144C440.06813088 564.4110563500001 378.25454269 502.59746701 378.25454269 426.57132885M516.14433469 515.57237191c49.07736519 0 89.04644949-39.97024939 89.0464495-89.00104192 0-49.12859363-39.9690843-89.04877853-89.0464495-89.04877853-49.07969309 0-89.04994247 39.92134883-89.04994247 89.04877853C427.09439109 475.60212252 467.06464047 515.57237191 516.14433469 515.57237191"  horiz-adv-x="1024" />

    
    <glyph glyph-name="wxbdingwei" unicode="&#58916;" d="M837.69571413 347.16097706999994c31.0124544 53.67036373 46.75881707 114.86134507 46.75881707 177.1624096 0 202.69758293-166.79072427 367.59232533-371.74667627 367.59232533-205.04982293 0-371.81762453-164.8947424-371.81762453-367.59232533 0-61.91793813 14.4496288-123.37743573 46.30146773-176.1472896C259.68762027 228.07105707000005 509.02504427-121.13777706999997 509.02504427-121.13777706999997S764.68786453 220.81677119999995 837.69571413 347.16097706999994zM232.35361067 362.3430208c-30.2985952 48.23783573-44.6598112 104.78546347-44.6598112 161.98036587 0 177.16459307 145.83341333 321.31378027 325.01405546 321.31378026 179.1293408 0 324.94310613-144.1491872 324.94310614-321.31378026 0-55.29782933-14.50857173-109.40589547-42.0084928-157.07395414C731.94206613 256.83714986999996 511.1720768-35.42892372999995 511.1720768-35.42892372999995S295.8826432 261.20107307 232.35361067 362.3430208zM512.70785493 722.13966293c-94.25114027 0-170.9057792-75.7475808-170.9057792-168.9595872 0-93.170528 76.65463893-168.9606784 170.9057792-168.9606784 94.20202133 0 170.85884373 75.7901504 170.85884374 168.9606784C683.56778987 646.39099093 606.91096747 722.13966293 512.70785493 722.13966293M512.70785493 430.4979424c-68.47255573 0-124.09893547 55.02494827-124.09893546 122.68213333 0 67.65609387 55.62637867 122.68322453 124.09893546 122.68322454 68.3786848 0 124.04981653-55.02713067 124.04981654-122.68322454C636.75876267 485.5217984 581.08653973 430.4979424 512.70785493 430.4979424"  horiz-adv-x="1024" />

    
    <glyph glyph-name="arrowup1" unicode="&#58955;" d="M7.39750764 172.76714862999995L1016.60249236 172.76714862999995 511.54534649 663.73004574Z"  horiz-adv-x="1024" />

    
    <glyph glyph-name="arrowdown-copy" unicode="&#58956;" d="M1024.61205573 602.81570787L-0.61205573 602.81570787 512.46187023 104.05974890000005Z"  horiz-adv-x="1024" />

    
    <glyph glyph-name="jiaochacross78" unicode="&#58988;" d="M1024 384c0 282.763636-229.236364 512-512 512C229.236364 896 0 666.763636 0 384c0-282.763636 229.236364-512 512-512C794.763636-128 1024 101.23636399999998 1024 384zM281.6 186.50763600000005L479.092364 384 281.6 581.492364 314.507636 614.4 512 416.907636l197.492364 197.492364 32.907636-32.907636L544.907636 384l197.492364-197.492364-32.907636-32.907636L512 351.092364 314.507636 153.60000000000002 281.6 186.50763600000005z"  horiz-adv-x="1024" />

    
    <glyph glyph-name="jiaochacross80" unicode="&#59017;" d="M709.492364 153.60000000000002L742.4 186.50763600000005 544.907636 384 742.4 581.492364 709.492364 614.4 512 416.907636 314.507636 614.4 281.6 581.492364 479.092364 384 281.6 186.50763600000005 314.507636 153.60000000000002 512 351.092364ZM1024 384c0 282.763636-229.236364 512-512 512C229.236364 896 0 666.763636 0 384c0-282.763636 229.236364-512 512-512C794.763636-128 1024 101.23636399999998 1024 384zM46.545455 384C46.545455 641.070545 254.929455 849.454545 512 849.454545s465.454545-208.384 465.454545-465.454545-208.384-465.454545-465.454545-465.454545S46.545455 126.92945499999996 46.545455 384z"  horiz-adv-x="1024" />

    
    <glyph glyph-name="chufa" unicode="&#58888;" d="M653.18707541 618.39337129L695.2146341 438.13488297 2.42414819 438.13488297 2.42414819 320.27329535 1021.57585181 320.27329535Z"  horiz-adv-x="1024" />

    
    <glyph glyph-name="icon5" unicode="&#58897;" d="M197.35498219 572.9022977c6.40704654 0 11.64351701 5.2706472 11.64351701 11.71431339L208.9984992 628.9862339399999c0 6.51568164-5.23647047 11.7143134-11.64351701 11.71431339-6.47784294 0-11.7143134-5.19985082-11.71431339-11.71431339l0-44.36962285C185.64067 578.1729449 190.87836071 572.9022977 197.35498219 572.9022977zM194.17281998 256.09708476000003l26.61200928 0 0 51.25149256c41.25825702 8.41985292 72.29990463 44.88228471 72.29990462 88.59155162l0 48.32443925 233.74308055 0 0.07079638-0.15013696c0 0 72.48421833 1.9041713 71.05609046-68.30846861l-61.57185482-229.97257905L937.49766671 145.83338357000002l-9.59287072 38.14688999-47.44314996 405.54445982 0 17.13143441c0 49.93199978-40.48926481 90.42126459-90.45910329 90.42126458l-75.70422046 0c-20.76034551 0-39.68365415-7.25049711-54.91458041-18.9648093l-389.98396511-5.27064722c-16.54675708 18.30445338-40.23415474 29.94430843-66.8083241 29.94430843l-16.80552913 0c-49.93199978 0-90.45910329-40.48560283-90.45910328-90.42126459l0-216.42489075c0-47.6640833 36.93969426-86.17349821 83.65169191-89.76212771l0-156.31900369 15.19308638 0L194.17159974 256.09708476000003zM748.92859942 636.0145774499999c61.97710067 0 112.20082896-50.22861053 112.20082897-112.16665103 0-62.01371911-50.22494855-112.23866887-112.20082897-112.23866887-61.94292392 0-112.16665103 50.22494855-112.16665105 112.23866887C636.76194718 585.78718718 686.98567549 636.0145774499999 748.92859942 636.0145774499999zM185.64067 628.9862339399999c0 6.51568164 5.23647047 11.7143134 11.71431339 11.71431339 6.40704654 0 11.64351701-5.19985082 11.64351701-11.71431339l0-44.36962285c0-6.44366501-5.23647047-11.7143134-11.64351701-11.71431339-6.47784294 0-11.7143134 5.2706472-11.71431339 11.71431339L185.64067 628.9862339399999zM185.64067 530.87626992c0 6.44366501 5.23647047 11.63985505 11.71431339 11.63985505 6.40704654 0 11.64351701-5.19618886 11.64351701-11.63985505l0-44.44041923c0-6.44366501-5.23647047-11.7143134-11.64351701-11.71431339-6.47784294 0-11.7143134 5.2706472-11.71431339 11.71431339L185.64067 530.87626992zM748.92859942 439.72385303c47.77271839 0 86.5042869 38.6558899 86.5042869 86.39198984 0 47.8105571-38.73156851 86.47010897-86.5042869 86.47010898-47.73854046 0-86.43227026-38.65955186-86.43227026-86.47010898C662.49632916 478.38096319 701.19005776 439.72385303 748.92859942 439.72385303zM1005.11160265 132.36137387999997L322.08061745 132.36137387999997c-3.51661287 10.10675285-12.95934783 17.49884273-24.27207616 17.49884272l-103.63572131 0 0-0.29294878-15.19308636 0 0 0.29294878-93.86219884 0c-11.27610988 0-20.79330198-7.39208869-24.19761781-17.49884272l-38.62293341 0c-13.14244126 0-23.75941429-10.61575276-23.75941429-23.72157558s10.61575276-23.79237078 23.75941429-23.79237077l982.81461791 0c13.14244126 0 23.75941429 10.6877694 23.75941427 23.79237077S1018.25404275 132.36137387999997 1005.11160265 132.36137387999997z"  horiz-adv-x="1024" />

    
    <glyph glyph-name="jiarubanji" unicode="&#58891;" d="M630.592 735.488c65.184 0 118.208-53.52 118.208-119.296 0-49.84-21.616-125.568-53.808-158.864l-2.624-2.688c-31.52-31.472-42.176-47.12-42.176-62.016 0-27.472 19.568-51.344 48.896-57.152 76.88-7.68 122.944-30.032 159.008-77.152l38.416 29.392c-44.528 58.208-102.128 86.896-190.224 95.552-3.408 0.688-6.16 3.248-7.232 6.432 2.576 3.92 9.424 12.688 27.472 30.704l2.368 2.368c0.4 0.432 0.8 0.848 1.184 1.28 46.272 48.176 67.088 141.296 67.088 192.16 0 92.464-74.752 167.68-166.592 167.68-20.336 0-40.496-3.808-59.84-11.312l17.488-45.12C602.016 732.784 616.256 735.488 630.592 735.488zM704.272 208.12800000000004c-56.256 73.536-129.248 109.808-241.696 120.912-8.208 1.648-14.384 8.416-15.456 16.544 2.32 4.224 10.352 15.744 37.968 43.312 1.504 1.504 2.832 3.008 4 4.448l0.16-0.16c55.328 57.216 85.184 165.728 85.184 238.784 0 115.632-93.44 209.712-208.304 209.712S157.808 747.616 157.808 631.9680000000001c0-73.984 29.824-183.152 85.968-240.608 18.368-17.008 36.752-37.44 41.36-45.808-1.152-8.736-8.096-15.824-16.752-16.896-112.8-11.808-184.688-47.856-240.368-120.48-19.312-25.12-27.424-69.408-28-92.848C0.176 109.15200000000004 0 28.511999999999944 0 28.44799999999998c0-52.016 42.304-94.336 94.336-94.336l543.568 0c52.016 0 94.336 42.304 94.336 94.384 0 0-0.16 80.848 0 88.256C731.632 138.81600000000003 723.504 183.13599999999997 704.272 208.12800000000004zM683.84 28.44799999999998c0-25.328-20.624-45.952-45.952-45.952L94.336-17.50400000000002c-25.344 0-45.952 20.624-45.952 45.904 0 0 0.16 83.232-0.016 87.072 0.512 19.472 8.304 50.624 18 63.248 47.472 61.872 107.456 91.376 207.456 101.872 34.128 4.16 59.856 33.184 59.856 67.52 0 7.104 0 26-56.16 77.904-44.64 45.728-71.328 140.624-71.328 205.952 0 88.96 71.744 161.328 159.92 161.328s159.92-72.368 159.92-161.328c0-63.072-27.376-159.44-71.568-205.152l-3.584-3.696c-38.624-38.592-52.32-58.224-52.32-75.024 0-32.192 22.912-60.176 56.848-66.848 101.52-10.128 162.48-39.824 210.464-102.544 9.664-12.544 17.44-43.728 17.984-61.824C683.68 111.58399999999995 683.84 28.44799999999998 683.84 28.44799999999998zM993.76 103.75999999999999l-78.624 0 0 78.624c0 16.704-10.832 30.24-24.192 30.24s-24.192-13.536-24.192-30.24l0-78.624-78.624 0c-16.704 0-30.24-10.832-30.24-24.192 0-13.36 13.536-24.192 30.24-24.192l78.624 0 0-78.624c0-16.704 10.832-30.24 24.192-30.24s24.192 13.536 24.192 30.24l0 78.624 78.624 0c16.704 0 30.24 10.832 30.24 24.192C1024 92.928 1010.464 103.75999999999999 993.76 103.75999999999999z"  horiz-adv-x="1025" />

    
    <glyph glyph-name="geren8" unicode="&#58944;" d="M846.328 2.7350000000000136c0.026-0.026 0.312-0.156 0.312-0.156s-7.541-7.411-21.428-18.541h-2.054c-85.427-65.455-191.917-104.775-307.848-104.775-115.904 0-222.421 39.32-307.822 104.775h-9.361c-12.405 9.57-21.325 16.851-21.325 16.851l6.658 2.627C76.293 96.50999999999999 8.212 233.34799999999996 8.212 386.362 8.212 666.436 235.262 893.46 515.31 893.46c280.074 0 507.099-227.024 507.099-507.098 0-153.43-68.42-290.633-176.08-383.627z m-326.597-75.57c89.015 0 171.815 25.953 241.95 70.135-25.666 8.92-53.127 16.358-81.915 21.949-59.37 11.572-88.651 46.393-92.214 109.533-0.104 1.118-0.468 3.979-0.754 6.293-1.144 9.102-2.86 22.833-3.615 35.367-0.91 15.239-2.834 46.965 24.575 60.748 0.416 0.364 3.9 3.77 7.23 15.967 3.354 12.222 4.758 26.733 5.773 37.343 2.34 24.653 12.794 40.36 20.44 51.828 2.236 3.38 4.368 6.553 6.163 9.778l0.026 0.052 0.026 0.026c6.449 11.416 10.454 26.083 14.719 41.582a753.29 753.29 0 0 0 2.002 7.256v0.026 0.026l0.676 2.34c1.794 6.45 7.282 25.849 6.865 32.818-0.442 1.587-2.054 5.227-3.224 7.932-4.343 9.83-10.272 23.3-10.272 40.308 0 15.42 3.146 29.776 5.929 42.466 1.56 7.177 3.069 13.939 3.667 19.582 2.912 26.655 2.028 51.88-2.575 74.998-4.837 24.107-18.1 42.285-41.79 57.185-20.934 13.185-48.863 23.223-87.897 31.57-7.23 1.535-14.953 2.315-22.962 2.315-43.273 0-94.503-23.014-127.477-57.263-12.509-13.029-31.44-32.74-33.339-47.485-2.756-21.376-2.47-47.798 0.702-68.992 1.3-8.451 2.21-16.72 3.121-24.704 0.598-5.228 1.144-10.168 1.794-15.057 0.234-0.859 0.859-2.523 1.3-3.797 3.355-9.258 8.972-24.757 3.927-43.715l-0.026-0.078-0.026-0.104c-2.47-9.05-6.345-16.149-9.18-21.324a222.809 222.809 0 0 1-1.898-3.589l-0.026-0.026-0.026-0.052c-1.066-2.184-5.539-14.952 13.159-53.648 5.279-10.792 10.376-19.192 15.629-25.615 18.776-22.91 19.53-43.064 20.18-60.852 0.468-12.69 2.574-25.9 5.773-36.173 3.615-11.624 7.671-16.435 8.842-17.267h0.026c31.622-15.915 25.979-52.66 20.024-91.564-0.365-2.444-0.833-5.46-1.015-6.813-0.234-4.915-0.39-9.57-0.546-14.069-1.17-34.509-2.73-81.76-71.332-95.152-29.411-5.722-57.445-13.289-83.528-22.469 69.954-43.844 152.442-69.615 241.119-69.615z m0 910.176c-251.339 0-455.088-203.75-455.088-455.088 0-145.004 68.055-273.885 173.713-357.231 11.703 4.55 21.663 8.4 25.2 9.648 29.541 10.454 60.019 18.515 90.783 24.496 42.232 8.218 36.771 28.112 39.137 72.346 0.365 6.398 10.012 55.6 3.277 58.98-28.007 13.965-35.99 60.618-37.031 88.339-0.572 15.681-0.936 24.289-10.974 36.511-8.348 10.22-15.031 21.896-20.778 33.729-12.145 25.094-26.525 62.282-12.925 89.483 2.86 5.8 6.553 11.26 8.244 17.501 2.834 10.636-4.811 20.596-6.163 31.102-1.743 13.159-2.887 26.448-4.89 39.606-3.744 25.017-4.082 55.027-0.831 80.252 3.536 27.409 26.03 51.386 44.39 70.5 37.785 39.241 98.845 69.745 156.759 69.745 10.662 0 21.194-1.04 31.466-3.225 70.213-15.03 145.576-43.22 161.049-120.56 5.747-28.76 6.32-58.25 3.147-87.35-2.055-18.88-9.362-38.8-9.362-57.653 0-14.693 10.376-27.384 12.872-41.14 2.73-14.875-4.395-38.826-8.425-53.233-5.487-19.685-10.35-39.97-20.466-57.913-9.232-16.409-19.686-25.51-21.61-45.587-2.601-27.175-7.152-71.696-35.16-85.712-6.76-3.355 1.69-56.977 2.055-63.375 2.392-44.234 17.19-64.128 59.422-72.346 30.764-5.98 61.215-14.042 90.757-24.496 2.34-0.833 11.494-5.045 22.234-10.09C906.504 107.89999999999998 974.82 236.96299999999997 974.82 382.25300000000004c0 251.339-203.75 455.088-455.088 455.088z"  horiz-adv-x="1025" />

    
    <glyph glyph-name="dangaosolid" unicode="&#59598;" d="M631.50544203 207.20035991999998c-31.1268199-26.94579671-71.53910234-43.41338499-115.68352512-43.41338498-44.14442279 0-84.55670522 16.46758828-115.68352514 43.41338498-31.1268199-26.94579671-71.53910234-43.41338499-115.68352512-43.41338498l0 0c-30.56251002 0-59.38078951 7.8490374-84.54388 21.6105033l48.31262075-263.0453548c3.8732178-21.09749432 22.26458974-36.4108124 43.70836515-36.4108124l447.77988872 0c21.44377538 0 39.83514735 15.31331807 43.70836515 36.4108124l48.31262075 263.0453548c-25.1630905-13.7614659-53.98136999-21.6105033-84.54388002-21.6105033C703.04454439 163.78697494000005 662.63226193 180.25456322000002 631.50544203 207.20035991999998zM747.18896715 569.23079753c-10.13192737 0-20.0330007-0.96189183-29.71604518-2.62917102 0.96189183 7.96446443 1.60315306 16.03153064 1.60315305 24.25249955 0 5.59179789-0.23085403 11.13229488-0.70538735 16.59584053-1.65445395 19.64824396-27.12534985 26.61234087-38.78347893 10.70906247-37.02642317-50.53138458-96.67654238-83.53068727-163.76529183-83.53068728l0 0c-67.08874944 0-126.75169389 32.99930266-163.76529184 83.53068728-11.65812908 15.90327839-37.12902498 8.95200671-38.78347893-10.70906247-0.46170809-5.47637087-0.70538735-11.00404263-0.70538735-16.59584053 0-8.22096892 0.64126123-16.2752099 1.60315308-24.25249955-9.67021928 1.6672792-19.58411783 2.62917103-29.71604522 2.62917102l-0.29498016 0c-71.43650054 0-138.01224101-41.88718327-163.81659274-108.51422461-36.28256015-93.67543986 6.09198164-184.32412672 79.55486768-224.50555514 25.1630905-13.7614659 53.98136999-21.6105033 84.54388-21.61050332l0 0c44.14442279 0 84.55670522 16.46758828 115.68352512 43.41338499 31.1268199-26.94579671 71.53910234-43.41338499 115.68352513-43.41338499 44.14442279 0 84.55670522 16.46758828 115.68352514 43.41338499 31.1268199-26.94579671 71.53910234-43.41338499 115.68352512-43.41338499 30.56251002 0 59.38078951 7.8490374 84.54387999 21.61050332 55.1356402 30.15210284 92.76484892 88.73772842 92.76484892 155.69822561C924.49769609 489.44507583 844.71197438 569.23079753 747.18896715 569.23079753zM476.2176236 786.19512065c-39.06563388-15.83915227-66.65269181-54.08397177-66.65269181-98.83118011 0-58.91908143 47.76113609-106.66739229 106.6673923-106.66739228s106.66739229 47.76113609 106.66739229 106.66739228-47.76113609 106.66739229-106.66739229 106.66739229c-3.64236375 0-7.24625185-0.19237836-10.79883904-0.55148464-18.49397375 48.35109641-53.35293398 81.69668016-72.47534373 97.11260003-6.86149512 5.52767176-16.96777204 3.89886825-21.76440601-3.47563585l-0.03847568-0.06412612c-4.14254751-6.37413658-2.84719985-14.80030909 3.03957821-19.59694306C430.08529102 854.52791687 459.76286055 826.1841707 476.2176236 786.19512065zM484.52836909 760.6857491000001c1.6672792-7.5284068 8.69550222-12.62002093 16.35216126-11.64530386 8.61855088 1.09014408 14.58228027 9.3624139 12.72262271 17.85271252-1.61597828 7.37450409-3.71931511 14.42837758-6.09198164 21.2385718 13.00477766-3.79626645 22.45696813-14.50532892 22.45696813-27.27925254 0-15.94175408-14.60793072-28.85675516-32.6401964-28.85675516-18.01944045 0-32.64019639 12.91500108-32.64019638 28.85675516 0 9.2598121 5.01466279 17.40382967 12.68414704 22.67499693C480.21909366 776.25557166 482.75848811 768.71433964 484.52836909 760.6857491000001z"  horiz-adv-x="1024" />

    
    <glyph glyph-name="emichenggong" unicode="&#58941;" d="M300.37999864 395.4013063C281.9426667 413.82493574 252.02666783 413.82493574 233.59333344 395.4013063 215.15600052 376.97368227000004 215.15600052 347.11717410000006 233.59333344 328.69354466000004L427.89599914 134.67418306000002C437.11999944 125.44638997000004 449.21333277 120.83249341999999 461.30666609 120.83249341999999 473.36400083 120.83249341999999 485.4693327 125.44638997000004 494.6826673 134.65820469000005L939.18266577 578.54971274C957.5986663 596.9786706 957.5986663 626.84583069 939.18266577 645.2481553 920.7293338 663.67711119 890.82800014 663.67711119 872.3746662 645.2481553L461.30666609 234.67657155999996 300.37999864 395.4013063 300.37999864 395.4013063ZM1012.1973328 441.70539083C1010.16133423 461.42863447 992.46933364 475.78564639 972.73466633 473.73635483 952.97866564 471.70171274 938.61466564 454.06371003 940.66133286 434.32448703 942.19733291 419.53605013 942.96399959 404.43735397 942.96399959 389.43586386 942.96399959 151.80752033 749.38533383-41.51542844000005 511.44266656-41.51542844000005 273.48933359-41.51542844000005 79.91733303 151.80752033 79.91733303 389.43586386 79.91733303 627.0748603 273.48933359 820.39248261 511.44266656 820.39248261 596.32799933 820.39248261 678.46933264 795.80500602 748.969334 749.28254281 765.54666673 738.3490060199999 787.84933217 742.92162378 798.79733436 759.4624116 809.72933356 776.01251947 805.17733353 798.29105099 788.60399933 809.22458778 706.32266623 863.51677306 610.46400036 892.21348175 511.44266656 892.21348175 233.84400059 892.21348175 8 666.66249613 8 389.43586386 8 112.20923356000003 233.84400059-113.33642560999999 511.44266656-113.33642560999999 789.03600017-113.33642560999999 1014.88000077 112.20923356000003 1014.88000077 389.43586386 1014.88000077 406.89676766 1013.984 424.47751419 1012.1973328 441.70539083L1012.1973328 441.70539083Z"  horiz-adv-x="1024" />

    
    <glyph glyph-name="shuaxin" unicode="&#58908;" d="M1007.2 633.6c-12.8 6.4-32 0-38.4-19.2l-25.6-70.4C904.8 640 847.2 716.8 757.6 768c-108.8 64-230.4 89.6-352 57.6C232.8 787.2 104.8 659.2 60 486.4 53.6 467.2 66.4 454.4 79.2 448 98.4 448 111.2 454.4 117.6 473.6c38.4 153.6 153.6 268.8 307.2 300.8 108.8 25.6 217.6 6.4 307.2-51.2 76.8-44.8 134.4-115.2 166.4-198.4l-76.8 32c-12.8 6.4-32 0-38.4-19.2-6.4-12.8 0-32 12.8-38.4l128-51.2c6.4-6.4 12.8-6.4 19.2-6.4 0 0 6.4 0 6.4 0 0 0 0 0 0 0 0 0 0 0 6.4 0 6.4 0 12.8 6.4 12.8 12.8L1026.4 601.6C1032.8 614.4 1020 627.2 1007.2 633.6zM949.6 320c-12.8 6.4-32-6.4-32-19.2-38.4-153.6-153.6-268.8-307.2-300.8-108.8-25.6-217.6-6.4-307.2 51.2-76.8 44.8-134.4 115.2-166.4 198.4l76.8-32c12.8-6.4 32 0 38.4 19.2 6.4 12.8 0 32-12.8 38.4L104.8 320C98.4 320 92 326.4 85.6 326.4c0 0-6.4 0-6.4 0 0 0 0 0 0 0 0 0 0 0-6.4 0C66.4 320 60 313.6 60 307.20000000000005L2.4 166.39999999999998c-6.4-12.8 0-32 19.2-38.4 12.8-6.4 32 0 38.4 19.2l25.6 70.4C124 128 181.6 51.200000000000045 271.2 0c108.8-64 230.4-89.6 352-57.6 172.8 38.4 307.2 172.8 345.6 345.6C975.2 300.79999999999995 962.4 313.6 949.6 320z"  horiz-adv-x="1029" />

    
    <glyph glyph-name="fankui" unicode="&#58899;" d="M313.7876419 667.60925156l403.80883099 0c16.03648914 0 28.99602794 12.98180368 28.99602793 28.97335873 0 15.99155505-12.95953981 28.97335873-28.99602793 28.97335873l-403.80883099 0c-16.0140221 0-28.97335873-12.98180368-28.97335873-28.97335873S297.77361981 667.60925156 313.7876419 667.60925156L313.7876419 667.60925156zM313.7876419 506.57076114l287.80285765 0c16.0140221 0 28.9059586 12.98180368 28.90595861 28.97335873 0 15.99155505-12.89193651 28.9508927-28.90595861 28.9508927L313.7876419 564.49501257c-16.0140221 0-28.97335873-12.95933663-28.97335873-28.9508927C284.81408101 519.55276698 297.77361981 506.57076114 313.7876419 506.57076114L313.7876419 506.57076114zM971.86620749 597.51139657l-72.61313321 42.20229892L899.2530753 857.86803505c0 16.19375746-13.11660495 29.33282946-29.28789537 29.33282946L161.46366679 887.20086349c-16.17129041 0-29.31036241-13.11660495-29.31036241-29.33282946l0-218.17660444-72.63580242-42.20229892L1.61571758 568.4706367l0-33.48798578 0-3.05448229 0-625.4443205 0 0c0-3.97542197 0.80860546-7.77110857 2.2910141-11.20752864 0.11233422-0.29186743 0.29206959-0.51653587 0.42666768-0.83107149 0.78613841-1.66194083 1.72934197-3.30161778 2.85248305-4.85142756 5.07589384-7.02990425 13.11660495-11.58926222 22.34765613-11.9262659 0.35926756 0 0.69627022-0.11233422 1.05553777-0.11233422l970.22802286 0.00020216c16.0140221 0 28.95109486 12.98200686 28.95109486 28.92842565l0 624.56831492 0 3.05448228 0 31.66857448L971.86620749 597.51139657 971.86620749 597.51139657zM899.25287314 572.6931941600001l68.30091073-39.68681854-68.30091073-39.66435149L899.25287314 572.6931941600001 899.25287314 572.6931941600001zM208.85439593 829.29887695l613.67512077 0c14.39681219 0 18.8440381-4.40208965 18.84403809-18.75417092l0-350.847936-325.67026387-189.2032447-325.64779683 189.2032447L190.05549409 810.52223898C190.07775796 824.89678629 194.50231466 829.29887695 208.85439593 829.29887695L208.85439593 829.29887695zM132.15330438 493.364288L63.85239466 533.02884267l68.30091073 39.68681854L132.15330438 493.364288 132.15330438 493.364288zM971.86620749-64.47519086L59.54017117-64.47519086 59.54017117 468.52361956l441.58657219-256.49355073c0.40440381-0.33680051 0.89847263-0.44913473 1.34760737-0.65133715 0.65133714-0.35946971 1.28020724-0.583936 1.93154336-0.87600558 1.07800483-0.47160178 2.15621283-0.87600559 3.2566847-1.23527315 0.71873727-0.17973537 1.41500851-0.29206959 2.15621283-0.47160178 1.05553778-0.22446629 2.11127873-0.40420165 3.2117506-0.49406882 0.89847263-0.0449341 1.7967421-0.0449341 2.69521473-0.0449341 0.89827048 0 1.7967421 0 2.69521473 0.0449341 1.07800483 0.11233422 2.13374578 0.29206959 3.2117506 0.49406882 0.71873727 0.2022014 1.43747454 0.31453663 2.15621283 0.47160178 1.10067403 0.35926756 2.17867987 0.76367137 3.27915174 1.23527315 0.65133714 0.29206959 1.28020724 0.51653587 1.93154337 0.87600558 0.44913473 0.22466844 0.92093968 0.33700267 1.34760736 0.65133715l441.56410515 256.49355073 0-532.9988094L971.86620749-64.47519086z"  horiz-adv-x="1032" />

    
    <glyph glyph-name="banji1" unicode="&#59049;" d="M687.83942616 517.90646962c0 13.81897142-11.21561232 25.03458373-25.03458374 25.03458373s-25.03458373-11.21561232-25.03458373-25.03458373c0-69.04564869-56.12726774-125.17291755-125.17291755-125.17291756-69.04564869 0-125.17291755 56.12726774-125.17291755 125.17291756 0 13.81897142-11.21561232 25.03458373-25.03458373 25.03458373-13.81897142 0-25.03458373-11.21561232-25.03458375-25.03458373 0-96.63324027 78.60884365-175.24208391 175.24208391-175.24208391S687.83942616 421.27322936 687.83942616 517.90646962M903.9571013 156.71820669c65.84037027 25.98552435 111.25324473 90.67469628 111.25324474 163.17508727 0 80.11020947-53.32365095 147.7036985-128.87712484 168.33145422 0.75068291 9.86415406 1.80232493 19.62760783 1.80232494 29.69087672 0 207.08545083-168.48250576 375.51760645-375.51760645 375.51760644-207.08545083 0-375.51760645-168.43215562-375.51760644-375.51760644 0-10.11361904 1.65241737-19.82786554 2.45345041-29.74122687-75.40356521-20.72845601-128.62765986-88.27159602-128.62765986-168.28224807 0-72.50039211 45.36252322-137.18956294 111.20289349-163.17508727l-81.01194393-231.51925921c-4.60594172-13.06828851 2.30354287-27.3381266 15.32148123-31.89371819 2.75326666-0.95094061 5.55802745-1.40180841 8.26094284-1.4018084 10.31387785 0 20.02812436 6.45861791 23.63277534 16.77363978l89.92401338 256.80445191c0.45086779 1.15119943 0.75068291 2.40310028 1.05164202 3.65500112 2.75326666 12.91723584-4.9572521 25.78526664-17.72458151 29.34071034-3.10457703 0.90173446-6.25836022 1.00129188-9.16267843 0.85138432-53.3740022 14.87061343-91.42652318 64.43856186-91.42652317 120.56583073 0 55.02641958 35.14820277 102.04021618 85.81814447 118.61359709 28.94019382-131.18066769 126.72463352-240.48167994 257.354876-279.98635946l-80.7109837-230.61752475c-4.60594172-13.06828851 2.30354287-27.3381266 15.37068738-31.89371818 2.75326666-1.00129188 5.50767731-1.40180841 8.26094285-1.4018084 10.364228 0 19.97777422 6.45861791 23.63277534 16.77363978l89.67340441 256.25288384c2.35275013 6.75957815 1.75197479 14.16913668-1.80232492 20.42864088-3.4547423 6.25836022-9.46363754 10.71439438-16.47268068 12.26725433C294.36722669 232.92395005000003 187.16950071 366.50771800999996 187.16950071 517.91676889c0 179.44750911 146.00093099 325.44844009 325.4484401 325.44844009s325.44844009-146.00093099 325.44844009-325.44844009c0-13.46880504-0.85138431-26.6870011-2.40310028-39.75528961-16.02181287-130.8305013-108.64988563-238.22848722-236.07599591-273.57694769-6.65887675-1.8526762-12.26725433-6.35906163-15.52173892-12.51671932-3.15492718-6.10845153-3.70535126-13.31889747-1.4018084-19.82786554L673.94035189-88.62002395000002c3.65500112-10.31387785 13.26854621-16.77363976 23.63277533-16.77363977 2.75326666 0 5.50767731 0.40051652 8.26094284 1.4018084 13.06828851 4.55673558 19.92742295 18.82542968 15.37068739 31.89371819l-82.7639187 236.47651243c123.06963241 43.61054843 213.09434607 147.35353323 240.38097852 274.2280732 50.92055066-16.4223294 86.3193624-63.53797138 86.31936241-118.71315454 0-56.77839436-38.95311146-106.79721057-93.32840553-121.11739879-2.45345042 0-5.05680952-0.35016639-7.56061119-1.15119945-12.81767955-3.80490869-20.17803192-17.72458151-16.97389859-30.69216859 0.45086779-1.60206722 1.00129188-3.10457703 1.65241735-4.60594173l88.82202011-253.64952475c3.60465097-10.31387785 13.21819606-16.77363976 23.58242406-16.77363977 2.75326666 0 5.55802745 0.45086779 8.31129411 1.40180841 13.01793724 4.55673558 19.92742295 18.82542968 15.32148124 31.89371818L903.9571013 156.71820669z"  horiz-adv-x="1024" />

    
    <glyph glyph-name="xiaoxi" unicode="&#59028;" d="M918.32090435 897.83344539L105.83655466 897.83344539C57.85582391 897.83344539 18.80173962 858.93876686 18.80173962 810.79863037l0-667.42632342c0-48.14013649 39.05408428-87.03481502 87.03481504-87.03481503l174.06963129 0 0-145.05802627c0-16.099847 18.01269991-32.04028949 33.95314238-32.0402895 3.34749351 0-3.02868449-0.95642706 0 0 9.24545672-1.91285291 23.59185533 5.10094189 30.76505339 12.2741412l164.82417457 164.82417457 408.71294354 0c47.98073197 0 87.03481502 38.89467977 87.03481503 87.03481503L1005.1963161 810.79863037C1005.51512389 858.93876686 966.46104083 897.83344539 918.32090435 897.83344539M744.25127306 491.51156953L744.25127306 491.51156953zM686.22806305 491.51156953L686.22806305 491.51156953zM512.15843176 491.51156953L512.15843176 491.51156953zM454.13522174 491.51156953L454.13522174 491.51156953zM279.90618595 491.51156953L279.90618595 491.51156953zM221.88297592 491.51156953L221.88297592 491.51156953zM947.33250936 172.38391194999997c0-32.04028949-25.98292053-58.02321003-58.02321001-58.02321002L492.23287895 114.36070193l-5.89796321 0c-2.39106643-1.27523485-7.97022063-7.33260381-9.88307476-9.24545671l-138.3630405-138.36304051 0 118.596891c0 15.94044249-12.91175801 29.01160501-29.01160501 29.011605L134.84816089 114.36070193c-32.04028949 0-58.02321003 25.98292053-58.02321002 58.02321002L76.82494965 781.78702536c0 32.04028949 25.98292053 58.02321003 58.02321001 58.02321002l754.46113845 0c32.04028949 0 58.02321003-25.98292053 58.02321002-58.02321002L947.33250936 172.38391194999997M190.63970898 491.51156953c0 39.37289331 31.88088497 71.41318156 71.41318156 71.41318155s71.41318156-31.88088497 71.41318158-71.41318155-31.88088497-71.41318156-71.41318158-71.41318156S190.63970898 452.13867622 190.63970898 491.51156953zM454.13522174 491.51156953c0 39.37289331 31.88088497 71.41318156 71.41318155 71.41318155s71.41318156-31.88088497 71.41318157-71.41318155-31.88088497-71.41318156-71.41318157-71.41318156S454.13522174 452.13867622 454.13522174 491.51156953zM721.93465383 491.51156953c0 39.37289331 31.88088497 71.41318156 71.41318156 71.41318155s71.41318156-31.88088497 71.41318156-71.41318155-31.88088497-71.41318156-71.41318156-71.41318156S721.93465383 452.13867622 721.93465383 491.51156953z"  horiz-adv-x="1024" />

    
    <glyph glyph-name="ren2" unicode="&#58972;" d="M517.43519247 303.02048304000004c-160.69179788 0-291.42327149 130.73288483-291.4232715 291.42327149 0 160.69038528 130.73288483 291.4218575 291.4232715 291.4218575s291.4218575-130.73147222 291.4218575-291.4218575C808.85705135 433.75336787 678.12699172 303.02048304000004 517.43519247 303.02048304000004zM517.43519247 818.0419226500001c-123.29190645 0-223.59816812-100.30484906-223.59816812-223.59675551 0-123.29190645 100.30626166-223.59816812 223.59816812-223.59816813 123.29190645 0 223.59675551 100.30626166 223.59675551 223.59816813C741.03194798 717.73565962 640.72709892 818.0419226500001 517.43519247 818.0419226500001zM916.94624278-117.68591190999996c-18.72961998 0-33.91255169 15.1829317-33.91255168 33.9125517 0 201.59316193-164.00675069 365.59991262-365.59991261 365.59991261-201.59174796 0-365.59849865-164.00675069-365.59849865-365.59991261 0-18.72961998-15.1829317-33.91255169-33.91255169-33.9125517s-33.91255169 15.1829317-33.91255168 33.9125517c0 115.77321161 45.08391157 224.61554539 126.9473967 306.4790305s190.7044063 126.9473967 306.47761791 126.9473967c115.77321161 0 224.61554539-45.08391157 306.47903052-126.9473967S950.85879447 31.99843739000005 950.85879447-83.77336161000005C950.85879447-102.50298020000002 935.67586277-117.68591190999996 916.94624278-117.68591190999996z"  horiz-adv-x="1024" />

    
    <glyph glyph-name="8dadianhua" unicode="&#58986;" d="M518.40650403 279.50622386c4.88053631 0 9.76244068-4.88053631 14.64297699-9.76244064 14.64297699-9.76244068 29.28732066-9.76244068 34.16785696-4.88053634l29.28732067 43.9302963 0 0c4.88053631 4.88053631 9.76244068 9.76244068 19.52487999 14.64297699 4.88053631 4.88053631 9.76244068 4.88053631 19.52488001 4.88053633l0 0c4.88053631 0 14.64297699 0 19.52487998 0l0 0c9.76244068 0 14.64297699-4.88053631 19.52487999-9.76244066l112.26737695-82.98005763 0-4.88053632c4.88053631-4.88053631 9.76244068-9.76244068 14.64297699-14.64297698l0 0c0-9.76244068 4.88053631-14.64297699 4.88053632-24.40541633 0-4.88053631 0-14.64297699-4.88053632-19.52488l0 0c-4.88053631-9.76244068-4.88053631-14.64297699-14.64297699-19.52487998-4.88053631-9.76244068-14.64297699-14.64297699-24.4054163-19.52488l0 0c-9.76244068-9.76244068-24.40541632-14.64297699-39.04976-19.52487999-58.57463998-19.52487998-122.02981761-14.64297699-185.48499392 4.88053632-4.88053631 4.88053631-14.64297699 4.88053631-19.52487998 9.76244068l0 48.81220064c9.76244068-9.76244068 24.40541632-14.64297699 34.16785697-14.64297698 53.69273698-19.52487998 107.38684063-24.40541632 161.07957761-4.88053633 9.76244068 4.88053631 14.64297699 4.88053631 24.40541631 9.76244067l0 0c9.76244068 4.88053631 14.64297699 9.76244068 19.52488 14.64297699 0 4.88053631 4.88053631 4.88053631 4.88053632 4.88053631l0 0 0 0 0 4.88053632c0 0 0 0 0 4.88053633l0 0c-4.88053631 0-4.88053631 0-4.88053632 0l0 0-107.38684064 87.86196063 0 0c-4.88053631 0-4.88053631 0-4.88053632 0l0 0-4.88053632 0 0 0-4.88053632 0 0 0 0 0c0 0 0 0 0-4.88053633l0 0 0 0-34.16785698-43.9302963c-4.88053631-4.88053631-4.88053631-4.88053631-9.76244066-4.88053632 0 0-34.16785698-24.40541632-73.21761695-4.88053632L518.40787207 279.50622386 518.40650403 279.50622386zM518.40650403-120.75108461000002L518.40650403-120.75108461000002 518.40650403-120.75108461000002c141.55469762 0 268.46505154 58.57463998 361.20754851 151.31713827C967.4760145 123.30855062 1026.05065448 250.21890455000005 1026.05065448 391.77360216l0 0 0 0 0 0 0 0c0 136.6727946-58.57463998 263.58451522-146.43523393 356.32701219-92.74249695 92.74249695-219.65421891 151.31713827-361.20754848 151.31713825l0 0 0 0 0-58.57463998 0 0 0 0c122.02981761 0 234.29719457-48.81220066 317.27725217-131.79225694 82.98005763-82.98005763 131.79225694-195.24743459 131.79225696-317.27725219l0 0 0 0 0 0 0 0c0-126.91035393-48.81220066-239.17773089-131.79225696-322.1591552-82.98005763-82.98005763-195.24743459-131.79225694-317.27725217-131.79225693l0 0 0 0L518.40787207-120.75108461000002zM362.20883077 655.35811604l82.98005763-107.38684062 0 0c4.88053631-9.76244068 9.76244068-14.64297699 9.76244066-19.52487998 4.88053631-4.88053631 4.88053631-14.64297699 0-19.52488001 0-9.76244068 0-14.64297699-4.88053632-24.4054163l0 0c-4.88053631-4.88053631-9.76244068-9.76244068-14.64297698-14.642977l0 0-43.93029631-29.28732065c0-4.88053631-4.88053631-19.52487998 4.88053633-34.16785698 19.52487998-29.28732066 39.04975999-53.69273698 63.45517763-73.21761697l0 0 0 0c19.52487998-19.52487998 39.04975999-39.04975999 58.57463998-53.69273697l0-53.69273697c-4.88053631 4.88053631-9.76244068 4.88053631-9.76244068 9.76244065-29.28732066 19.52487998-58.57463998 39.04975999-82.9800576 63.45517765l0 0c-19.52487998 24.40541632-43.9302963 48.81220066-63.45517765 78.09952131-34.16785698 48.81220066-4.88053631 87.86196065-4.88053631 87.86196063 0 4.88053631 4.88053631 4.88053631 4.88053631 4.88053634l43.9302963 34.16785697 4.88053632 0c0 4.88053631 0 4.88053631 0 4.8805363l0 0 0 4.88053634c0 0 0 0 0 4.88053631l0 0 0 0 0 0-82.98005761 112.26737695 0 0c-4.88053631 0-4.88053631 0-4.88053634 0l0 0-4.88053631 4.88053634c0 0 0 0-4.88053631-4.88053634l0 0 0 0c-4.88053631-4.88053631-9.76244068-9.76244068-14.64297699-19.52487999-4.88053631-9.76244068-9.76244068-14.64297699-14.64297699-29.28732066-14.64297699-48.81220066-14.64297699-102.50493763 4.88053632-156.1976746 19.52487998-58.57463998 53.69273698-117.14928129 102.50493762-161.0795776 39.04975999-39.04975999 78.0995213-68.33708065 126.91035394-87.86196062l0-48.81220066c-58.57463998 19.52487998-112.26737694 58.57463998-156.19767459 102.50493764-53.69273698 53.69273698-92.74249695 117.14928129-117.14928129 180.60445756-19.52487998 63.45517763-24.40541632 126.91035393-4.88053633 185.48499392 4.88053631 14.64297699 14.64297699 29.28732066 19.52487999 39.04976l0 0 0 0c4.88053631 9.76244068 14.64297699 19.52487998 19.52488 24.40541629 4.88053631 4.88053631 9.76244068 9.76244068 19.52487999 14.642977l0 0c9.76244068 0 14.64297699 4.88053631 24.4054163 4.88053633 4.88053631 0 14.64297699-4.88053631 19.52488002-9.76244068l0 0L362.20883077 655.35811604 362.20883077 655.35811604zM518.40650403 899.41775127L518.40650403 899.41775127 518.40650403 899.41775127 518.40650403 899.41775127c-141.55469762 0-268.46505154-58.57463998-361.20891651-151.31713827S5.88181859 528.44776211 5.88181859 391.77360216l0 0 0 0 0-4.88053633 0 0c0-136.6727946 58.57463998-263.58451522 151.31713828-356.32701217S376.85180642-120.75108461000002 518.40650403-120.75108461000002l0 0 0 0 0 0 0 58.57463997 0 0 0 0 0 0c-126.91035393 0-239.17909891 48.81220066-322.1591552 131.79225695-78.0995213 82.98005763-131.79225694 195.24743459-131.79225695 317.27725219l0 0 0 4.88053633 0 0 0 0c0 122.02981761 53.69273698 234.29719457 131.79225695 317.27725217 82.98005763 82.98005763 195.24743459 131.79225694 322.1591552 131.79225696l0 0 0 0 0 0L518.40650403 899.41775127 518.40650403 899.41775127zM362.20883077 655.35811604L362.20883077 655.35811604 362.20883077 655.35811604 362.20883077 655.35811604zM362.20883077 655.35811604L362.20883077 655.35811604 362.20883077 655.35811604 362.20883077 655.35811604z"  horiz-adv-x="1024" />

    
    <glyph glyph-name="xingbie2" unicode="&#58934;" d="M539.75795826 565.6195493c0 147.7967781-120.26236473 268.05914283-268.07777167 268.05914283-147.8130779 0-268.05914283-120.26236473-268.05914282-268.05914283 0-140.53390563 108.69625742-256.13676203 246.43469084-267.18475719l0-142.32575545L120.68509013 156.10903666000002c-8.75200626 0-15.85420629-10.49146254-15.85420629-23.42561679 0-12.94463203 7.10103609-23.42561678 15.85420629-23.42561678l129.37064448 0 0-148.3125612c0-11.09340274 10.49146254-20.07128291 23.42212381-20.07128292 12.93066126 0 23.42212381 8.97787904 23.4221238 20.07128292L296.89998222 109.25896818000001l125.7881088 0c8.75317021 0 15.85420629 10.48098361 15.85420629 23.42561678 0 12.93415424-7.09987101 23.42561678-15.85420629 23.42561678L296.89881714 156.11020061 296.89881714 298.75497300999996C432.93155897 311.50749696 539.75795826 426.31164701 539.75795826 565.6195493zM57.79220025 565.6195493c0 117.92562403 95.94489856 213.88798635 213.88798634 213.88798635 117.93726691 0 213.89963037-95.96236231 213.89963037-213.88798635 0-117.94192498-95.95654144-213.88915143-213.89963037-213.88915143S57.79220025 447.67762546 57.79220025 565.6195493zM1001.3706752 309.41991595c-13.76429625 33.94618709-33.98577266 64.39832349-60.08926777 90.50181859-26.10349511 26.10349511-56.55097458 46.32147854-90.5018186 60.08926777-25.53299058 10.35174685-52.19069042 16.71112704-79.51087388 19.02574592l0.00232903 269.18617998 102.05861092-102.05861091c9.62755584-9.62755584 25.23609543-9.62755584 34.86132224-0.00232903 9.62522681 9.62522681 9.62522681 25.23260245-0.00232903 34.86015829L767.18203904 822.02759168c-9.62522681 9.62522681-25.23260245 9.62522681-34.85782926 0L591.31643563 681.02098261c-9.62522681-9.62522681-9.62522681-25.23260245 0-34.85782926 9.62522681-9.62522681 25.2337664-9.62522681 34.85899434-0.00116394l95.79353998 95.79353998 0-263.128353c-26.45627677-2.48111331-52.27451961-8.77645597-77.03674652-18.81733689-33.94967893-13.76778923-64.40065251-33.98227968-90.50414762-60.08693873-26.10698809-26.10582414-46.32264249-56.55796053-60.08926778-90.50647552-13.29275677-32.77723421-20.03169621-67.40453376-20.03053226-102.92018973 0.00116395-35.51798499 6.73893945-70.14761245 20.03286016-102.9236827 13.76778923-33.94967893 33.98227968-64.40065251 60.08693874-90.50414763 26.10349511-26.10349511 56.55446755-46.31914951 90.50414762-60.08577479 32.77607026-13.29392071 67.40453376-20.03169621 102.9236827-20.03286016 35.51565597-0.00232903 70.14761245 6.73893945 102.92018973 20.02936832 33.94967893 13.76662414 64.40065251 33.98227968 90.50764061 60.08926777 26.10349511 26.10349511 46.31914951 56.55446755 60.08693873 90.50414762 13.29392071 32.77607026 20.03169621 67.40453376 20.03286016 102.92368271C1021.40004238 242.01188921000005 1014.66110293 276.64035271 1001.3706752 309.41991595zM906.42590606 47.92739726000002c-87.43506603-87.43506603-229.70377102-87.43506603-317.13883591 0s-87.43157305 229.70027805 0.00232903 317.13534407 229.69794901 87.43506603 317.13301504 0S993.85980701 135.36129820999997 906.42590606 47.92739726000002z"  horiz-adv-x="1024" />

    
    <glyph glyph-name="pingguo1" unicode="&#58918;" d="M360.28597632-120.04848777999996l-3.7409927 0.02579995c-100.23280424 1.88339632-183.79368103 136.54365331-228.58136155 261.94688838-54.00755052 151.21350466-36.93004787 276.67969161 50.76191686 372.8907997 54.53180549 59.8496911 118.91403175 72.41839455 163.32503301 72.41839456 44.53071302 0 76.8982978-12.38087982 78.25743914-12.90719879l76.30799496-24.65339985 105.37628219 34.07450945c24.70809575 6.14967599 47.64012295 9.08467826 69.60310406 9.08467825 127.44555908 0 184.96396674-95.45671756 187.33240212-99.51969363l12.84011892-21.84223734-23.98260116-8.19406399c-3.14862585-1.1290058-80.85601008-30.30565281-83.73528446-147.95445503-2.93397027-117.8097939 103.06047871-158.93800957 107.58166188-160.63255026l18.51610784-6.94637844-6.08362811-18.84015519c-1.58618091-4.84419854-39.64626657-119.63952633-116.68078812-197.64309399-33.4295107-33.85985387-66.05096699-49.63394306-102.68483144-49.63394306-18.78649131 0-38.35523709 4.03614412-63.41111615 13.13320635-46.80936457 16.92992694-79.18726933 21.42324616-79.50822071 21.47794206-44.58437692-0.18782363-66.48337415-9.66259713-87.66410078-18.84015521-19.78546536-8.58931922-40.2427614-17.44076594-73.83223179-17.44076594zM342.05263593 545.88536356c-52.47193751 0-97.15229025-19.82055329-132.77479667-58.91779692-76.58766642-84.02940388-90.83955858-195.44803427-42.36454926-331.15680121 41.3160393-115.71071 116.222581-233.11699269 190.4139481-234.48851802l2.96183421-0.02579994c25.01666314 0 39.29745125 6.19301991 57.38631192 14.02278861 23.88868934 10.33649181 50.95283648 22.07237289 104.37834013 22.07237289l5.19610986-0.18782364c1.48091711-0.18782363 36.74016024-4.97939027 88.12230788-23.57805794 20.34687226-7.37568959 35.55542656-10.65744318 49.33672764-10.65744319 25.16733485 0 47.77325069 11.5201935 73.2636009 37.36039103 53.50806349 54.18092618 87.39474931 130.83773646 100.55581961 164.48190275-37.65347846 20.29320836-118.64468027 77.35650491-115.81906979 191.53160191 2.557291 104.1905165 55.09630839 153.28472461 87.23375762 173.66152482-20.51199193 23.34895439-65.24394457 61.4885039-138.34861779 61.48850391-18.59866767 0-38.22004535-2.51601108-58.29859814-7.4819854l-116.6807881-37.77628621-90.1656639 29.16219904c-1.33540539 0.47265508-28.02184127 10.4974835-64.39770622 10.4974835zM473.14527589 624.34610632l-1.8441804 20.03933686c-0.20020761 2.15274779-16.90309499 215.52761905 241.63613605 245.04172941l21.34481432 2.43654724 1.61610884-21.42324616c0.26831947-3.75440867 6.19301991-92.69921895-55.15100428-163.29613706-42.3397813-48.71649685-105.42891408-76.14390728-187.52125775-81.48759285l-20.07958478-1.30444545zM694.01348451 844.94599547c-153.28472461-26.88870748-177.99385235-130.79645653-181.3561018-175.93398439 59.59169161 7.52223331 105.48257798 29.31080676 136.56945327 64.89203326 33.29328698 38.08588561 42.41821315 84.19142757 44.78664853 111.04195113z"  horiz-adv-x="1024" />

    
    <glyph glyph-name="zizhi" unicode="&#59059;" d="M1011.92326371 123.99049045000004L850.33191765 339.23953890999996c27.44825629 52.66455779 43.18603264 112.39405909 43.18603264 175.84115371 0 210.66405433-171.44244679 382.10766507-382.1682085 382.10766506-210.66405433 0-382.10649998-171.44361074-382.10649998-382.10766506 0-63.8185051 15.92289963-123.9205797 43.68202184-176.83313209L12.07557234 123.99049045000004c-6.44437333-8.55058318-8.24088007-19.70336541-4.89469611-29.86416811 3.2833115-10.16196665 11.33790549-18.03027342 21.56157952-21.06675427l139.72006343-42.25692445 70.2628773-131.97517255c5.1426907-9.66597746 14.8086693-16.10918685 25.71345579-17.22458112 1.0536869-0.06287246 2.10737379-0.12341475 3.15989674-0.12341475 9.78939335 0 19.08396032 4.39870691 25.34204644 12.0201819l195.79367765 240.52822244c7.55976761-0.49598919 14.99379143-1.17710279 22.61526756-1.1771028 8.05459285 0 15.86235619 0.68111246 23.79353315 1.1771028l195.91709241-240.52822244c6.25808611-7.62147499 15.55148914-12.0201819 25.34204644-12.0201819 1.0536869 0 2.10737379 0.06170738 3.16106069 0.12341475 10.90362368 1.11539427 20.57076509 7.55860366 25.71229184 17.22458112l70.2628773 131.97517255 139.72006343 42.25692445c10.22367517 3.03531691 18.27826802 10.90478763 21.56274461 21.06675427C1020.16414379 104.28712617999997 1018.36647197 115.43990840000004 1011.92326371 123.99049045000004zM273.36084707-26.944062580000036l-53.53312256 100.49845589c-4.09016889 7.6831835-11.09107485 13.38357191-19.39366229 15.92406357l-107.99651612 32.65265437 118.40531342 157.68862947c50.68292779-64.62419741 121.62691869-112.39522304 203.22886542-133.95796764L273.36084707-26.944062580000036zM195.66278087 515.08069148c0 173.9841024 141.63998606 315.62408846 315.68579584 315.62408846 174.10751829 0 315.74750435-141.63998606 315.74750436-315.62408846 0-174.10751829-141.63998606-315.74633927-315.74750436-315.74633927C337.30276693 199.33318826000004 195.66278087 340.97317432 195.66278087 515.08069148zM823.56477383 89.47845687999995c-8.30258859-2.54049166-15.30465849-8.24088007-19.39366229-15.92406357l-53.53312256-100.49845589L609.617408 146.17147619000002c81.60194787 21.74786674 152.42135779 69.64230827 202.91916345 134.45162781l119.0247185-158.4931567L823.56477383 89.47845687999995z"  horiz-adv-x="1024" />

    
    <glyph glyph-name="xiangxia" unicode="&#59175;" d="M932.94971221 682.8815257599999L512 261.93181355 91.05028779 682.8815257599999 2.64303616 594.47427413 512 85.11847423999995 1021.35696384 594.47427413Z"  horiz-adv-x="1024" />

    
    <glyph glyph-name="all" unicode="&#59021;" d="M948.41505565 892.28339655L626.85281166 892.28339655c-40.27944846 0-73.04843833-33.07886819-73.04843833-73.73809095l0-353.95961401 0-13.1849489 0-27.95889551 27.9588955 0 13.18494891 0 353.46683904 0c40.30973725 0 73.10319161 33.08003328 73.10319161 73.73925604l0 321.36420238C1021.51824725 859.20452835 988.72362894 892.28339655 948.41505565 892.28339655zM965.60045739 497.18110322c0-9.82755214-7.70966528-17.82146617-17.18540061-17.82146617L609.7221632 479.35963705 609.7221632 818.54530446c0 9.82638706 7.68520078 17.82030109 17.13064846 17.82030109l321.5610789 0c9.47573533 0 17.18540061-7.99391403 17.18540061-17.82030109L965.5992923 497.18110322zM3.94610005 818.54530446l0-321.36420238c0-40.66038784 32.79345437-73.73925603 73.10319161-73.73925603l353.46683904 0 13.18494891 0 27.9588955 0 0 27.9588955 0 13.1849489 0 353.95961401c0 40.65922389-32.76898987 73.73809095-73.04843833 73.73809095L77.04929053 892.28339655C36.74071837 892.28339655 3.94610005 859.20452835 3.94610005 818.54530446zM59.86388992 818.54530446c0 9.82638706 7.70966528 17.82030109 17.18540061 17.82030109L398.61153565 836.36560555c9.44544654 0 17.13064846-7.99391403 17.13064846-17.82030109l0-339.18566741L77.04929053 479.35963705c-9.47573533 0-17.18540061 7.99507911-17.18540061 17.82146617L59.86388992 818.54530446zM1021.51824725-51.51338154999996l0 321.36420238c0 40.66038784-32.79345437 73.73925603-73.1031916 73.73925604L553.80437333 343.59007686999996l0-27.9588955 0-13.18494891 0-353.95961401c0-40.65922389 32.76898987-73.73809095 73.04843833-73.73809095l321.5610789 0C988.72362894-125.25263758000006 1021.51824725-92.17377052999996 1021.51824725-51.51338154999996zM965.60045739-51.51338154999996c0-9.82638706-7.70966528-17.82030109-17.18540061-17.82030108L626.85281166-69.33368263c-9.44544654 0-17.13064846 7.99391403-17.13064846 17.82030108L609.7221632 287.67228587l338.69172736 0c9.47573533 0 17.18540061-7.99507911 17.18540061-17.82146617L965.5992923-51.51338154999996zM77.04929053-125.25263758000006L398.61153565-125.25263758000006c40.27944846 0 73.04843833 33.07886819 73.04843832 73.73809095L471.65997397 343.59007686999996 77.04929053 343.59007686999996c-40.30973725 0-73.10319161-33.08003328-73.10319162-73.73925604l0-321.36420238C3.94610005-92.17377052999996 36.74071837-125.25263758000006 77.04929053-125.25263758000006zM59.86388992 269.85082083c0 9.82755214 7.70966528 17.82146617 17.18540061 17.82146618l338.69172736 0 0-339.18566742c0-9.82638706-7.68520078-17.82030109-17.13064847-17.82030108L77.04929053-69.33368263c-9.47573533 0-17.18540061 7.99391403-17.18540061 17.82030108L59.86388992 269.85082083z"  horiz-adv-x="1025" />

    
    <glyph glyph-name="arrowdown" unicode="&#59026;" d="M4.7026233 650.54612821c-0.1234853-7.15514766 2.48251733-14.35456285 7.84713045-19.90789802l439.32977039-454.70017309c28.56700131-29.56536718 75.86063701-30.37967019 105.42833436-1.81383281 0.14328946 0.13862912 0.28541383 0.27842446 0.42637312 0.42054883l451.90544953 455.71135374c10.8725157 10.96454713 10.79912334 28.6671872-0.16658887 39.5397029-10.96454713 10.8725157-28.66835229 10.79795826-39.54086798-0.16658887L518.28306604 214.17650517000004c-3.55893475-3.35506773-8.20244139-5.15375673-13.10223701-5.06987975-4.97784832 0.08504206-9.62485021 2.10507207-13.08476302 5.68497493L52.76629449 669.49293966c-10.73039133 11.10434133-28.42953614 11.40839424-39.53504256 0.68033309C7.67908069 664.80865963 4.8261086 657.70011079 4.7026233 650.54612821z"  horiz-adv-x="1025" />

    
    <glyph glyph-name="arrowleft" unicode="&#59027;" d="M735.44050119-122.64896625999995c-7.15631275 0-14.3091291 2.72948679-19.77043399 8.18846151l-447.07438478 447.07554987c-29.07026091 29.07026091-29.07026091 76.36972203 0 105.43998407 0.14095929 0.14095929 0.28424875 0.28075349 0.4275382 0.41821867l463.41868885 443.98492672c11.14977394 10.68146347 28.84891989 10.30401821 39.53154845-0.84692196s10.30401821-28.84891989-0.84692195-39.53154844L307.96996153 398.34757347c-3.4156453-3.50068622-5.29355093-8.11273899-5.29355094-13.01253574 0-4.97784832 1.93964829-9.65979819 5.46013981-13.17912463l447.07438478-447.07438478c10.9179483-10.91911339 10.9179483-28.62058951 0-39.5397029C749.75196046-119.91831437999997 742.59448377-122.64896625999995 735.44050119-122.64896625999995z"  horiz-adv-x="1025" />

    
    <glyph glyph-name="arrowright" unicode="&#59029;" d="M291.09676829-117.31563292999999c7.15631275 0 14.3091291 2.72948679 19.77043398 8.18846151l447.07438479 447.07554987c29.07026091 29.07026091 29.07026091 76.36972203 0 105.43998407-0.14095929 0.14095929-0.28424875 0.28075349-0.42753821 0.41821867l-463.41868885 443.98492672c-11.14977394 10.68146347-28.84891989 10.30401821-39.53154845-0.84692196s-10.30401821-28.84891989 0.84692196-39.53154844l463.15657444-443.73329693c3.4156453-3.50068622 5.29355093-8.11273899 5.29355093-13.01253575 0-4.97784832-1.93964829-9.65979819-5.46013981-13.17912462l-447.07438478-447.07438478c-10.9179483-10.91911339-10.9179483-28.62058951 0-39.5397029C276.78530901-114.58498105000001 283.94278571-117.31563292999999 291.09676829-117.31563292999999z"  horiz-adv-x="1025" />

    
    <glyph glyph-name="arrowup" unicode="&#59030;" d="M10.10317416 175.99315678000005c-0.12310428 7.13307103 2.47485774 14.31027304 7.8229188 19.84647386l437.9742549 453.29723352c28.47886021 29.47414571 75.62657533 30.28593623 105.10304403 1.8082364 0.14284737-0.13820139 0.28453321-0.2775654 0.42505757-0.41925127l450.51113285-454.30529428c10.83896947-10.93071693 10.76580354-28.57873698-0.16607486-39.41770643-10.93071693-10.83896947-28.57989847-10.76464205-39.41886792 0.16607488L522.09900718 611.01639765c-3.54795397 3.34471595-8.17713343 5.13785525-13.06181115 5.05423705-4.96248958-0.08594117-9.59515352-2.09857705-13.0443911-5.66743441L58.01854889 157.10480413000005c-10.69728359-11.07007982-28.34181917-11.3731946-39.41306047-0.67823397C13.07044794 161.77463121999995 10.22627847 168.86124836 10.10317416 175.99315678000005zM1014.19378082 674.1060973"  horiz-adv-x="1025" />

    
    <glyph glyph-name="close" unicode="&#59034;" d="M835.749495 752.226263l-324.525253-324.525253-324.525252 324.525253c-12.282828 12.282828-32.064646 12.282828-44.347475 0-12.282828-12.282828-12.282828-32.064646 0-44.347475l324.525253-324.525253-324.525253-324.525252c-12.282828-12.282828-12.282828-32.064646 0-44.347475 12.282828-12.282828 32.064646-12.282828 44.347475 0l324.525252 324.525253 324.525253-324.525253c12.282828-12.282828 32.064646-12.282828 44.347475 0 12.282828 12.282828 12.282828 32.064646 0 44.347475l-324.525253 324.525252 324.525253 324.525253c12.282828 12.282828 12.282828 32.064646 0 44.347475-12.282828 12.282828-32.064646 12.282828-44.347475 0z m0 0"  horiz-adv-x="1024" />

    
    <glyph glyph-name="refresh1" unicode="&#59040;" d="M1013.89600304 509.46450286c-10.32232432 9.13968762-26.09808965 8.17964089-35.23881752-2.14268343l-62.49562006-70.58788978c-4.56516368 45.0795581-15.66447035 88.86830527-33.17518426 130.68391213-22.86846273 54.60825702-55.6587967 103.58417067-97.45672025 145.56931962C699.40939784 799.49019429 584.04879136 847.12849067 460.69784787 847.12849067c-61.79976838 0-121.76265346-12.10928051-178.22547606-35.99083683-54.5240066-23.06088838-103.48639797-56.07069054-145.52667429-98.11200711-42.04027632-42.04027632-75.05007949-91.00266768-98.11200711-145.52667429-23.88155632-56.4628226-35.99083683-116.42674794-35.99083683-178.22547606 0-61.79976838 12.10928051-121.76265346 35.99083683-178.22547606 23.06088838-54.5240066 56.07069054-103.48639797 98.11200711-145.52667429s91.00266768-75.05007949 145.52667429-98.11200711c56.4628226-23.88155632 116.42674794-35.99083683 178.22547606-35.99083682 55.5391807 0 109.83019581 9.84178083 161.36276724 29.25178615 49.77993956 18.75055848 95.60319594 45.87214324 136.19352076 80.61065448 10.47418413 8.96494527 11.6984259 24.72406756 2.7345219 35.19825168-8.96494527 10.47418413-24.72406756 11.6984259-35.19825168 2.73452191-36.17078044-30.95761168-76.99201625-55.12104533-121.3289153-71.82149283-45.88670476-17.2829247-94.25517714-26.04712229-143.76364089-26.04712228-55.08151975 0-108.50090057 10.78206476-158.7769854 32.04767593-48.57233981 20.54375517-92.20090616 49.96092343-129.67185879 87.43291632-37.47095263 37.47095263-66.88812089 81.09951898-87.43291632 129.67185879-21.26457092 50.27608483-32.04663568 103.69546565-32.04663568 158.7769854s10.78206476 108.50090057 32.04663568 158.77594514c20.54479543 48.57233981 49.96092343 92.20090616 87.43291632 129.6718588 37.47199289 37.47095263 81.09951898 66.88812089 129.67185879 87.43291631 50.27504457 21.26457092 103.69546565 32.04663568 158.7769854 32.04663569 109.97269537 0 212.76948114-42.41784584 289.44945575-119.44002642 69.02768356-69.33452394 110.03198273-159.65902222 117.30462374-257.05125384l-103.57793016 73.27040407c-11.25428724 7.96121194-26.83346692 5.29221994-34.79571911-5.96310857-7.96225219-11.25532749-5.29325917-26.83450616 5.96206832-34.79675937l143.07819073-101.21265676c4.35921575-3.08400762 9.39868241-4.58388622 14.404864-4.58388622 6.93251657 0 13.80054349 2.87910095 18.70271187 8.41575212l104.8136127 118.38532673C1025.17837409 484.54904889 1024.21832736 500.32585448 1013.89600304 509.46450286z"  horiz-adv-x="1025" />

    
    <glyph glyph-name="search" unicode="&#59044;" d="M1015.74240597-74.62822457000004L790.36575061 150.62960468999995c32.31232797 36.44209038 58.27449287 77.52768626 77.29586062 122.49956921 23.37363627 55.26308637 35.22587762 113.95113757 35.22587762 174.4343825s-11.85224135 119.17013106-35.22587762 174.43438251c-22.57098297 53.36421149-54.87748665 101.28459321-96.02366122 142.42960271-41.14384441 41.14500949-89.06422613 73.45151317-142.4296027 96.02249614-55.26308637 23.37363627-113.95113757 35.22587762-174.43438251 35.22587762S335.60383488 883.82367516 280.34074851 860.45003776c-53.36421149-22.57098297-101.28459321-54.87748665-142.4296027-96.02249614s-73.45151317-89.06539122-96.02249614-142.42960271c-23.37363627-55.26308637-35.22587762-113.95113757-35.22587762-174.43438251s11.85224135-119.17013106 35.22587762-174.4343825c22.57098297-53.36537657 54.87748665-101.28459321 96.02249614-142.4296027 41.14500949-41.14500949 89.06539122-73.45267826 142.4296027-96.02366123 55.26308637-23.37363627 113.95113757-35.22587762 174.43438251-35.22587762s119.17013106 11.85224135 174.43438251 35.22587762c44.58744832 18.85827527 85.35617763 44.53852046 121.56527616 76.46641379l225.43956196-225.3195719c5.46013981-5.45780963 12.61062713-8.18380117 19.76460856-8.18380118 7.15747669 0 14.31611961 2.73298205 19.7750932 8.1942858C1026.66850873-103.24531882999997 1026.66384953-85.54384270000003 1015.74240597-74.62822457000004zM454.77513102 55.36782449999998c-104.7584859 0-203.24718933 40.79552285-277.32311723 114.87028565s-114.87145074 172.56579641-114.87145073 277.32428231 40.79552285 203.24718933 114.87145073 277.32311722 172.56463133 114.87145074 277.32311723 114.87145074 203.24835442-40.79552285 277.32428231-114.87145074 114.87028565-172.56463133 114.87028566-277.32311722-40.79552285-203.24835442-114.87028566-277.32428231S559.53361693 55.36782449999998 454.77513102 55.36782449999998z"  horiz-adv-x="1025" />

    
    <glyph glyph-name="arrowright1" unicode="&#58973;" d="M276.64707248 895.68349236L786.76725346 385.56331138 276.64707248-124.55687076000004Z"  horiz-adv-x="1024" />

    
    <glyph glyph-name="add" unicode="&#59065;" d="M984.85298744 416.315946L541.14620616 416.315946 541.14620616 860.02272727c0 16.73233867-13.56386131 30.29619999-30.29619998 30.2962s-30.29619999-13.56386131-30.2962-30.2962l0-443.70678003L36.84828862 416.315946c-16.73233867 0-30.29619999-13.56386131-30.29619999-30.29619999s13.56386131-30.29619999 30.29619999-30.29619999l443.70551756 0 0-443.70678004c0-16.73233867 13.56386131-30.29619999 30.2962-30.29620001s30.29619999 13.56386131 30.29619998 30.29620001L541.14620616 355.72480972999995l443.70678004 0c16.73233867 0 30.29619999 13.56386131 30.2962 30.2962S1001.58532611 416.315946 984.85298744 416.315946z"  horiz-adv-x="1025" />

    
    <glyph glyph-name="phone" unicode="&#59074;" d="M79.65825815 389.85740205M637.6772999 651.41127956M227.49330029 836.42164298c20.50975604 0 39.17914981-6.67200915 51.55906234-22.91723963 14.59502003-19.15867385 52.0194304-153.97217839 64.04127961-198.20537421 2.35521908-8.66805171-0.08562393-17.9265761-6.40401718-24.3105772l-76.83152105-77.64216971c-10.48839789-10.59848642-13.66205052-26.44005965-8.02642664-40.2444471 64.71292773-158.49802426 198.63127071-287.68368873 342.40528244-340.2446637 2.80558018-1.02526511 5.71568826-1.52344219 8.60244387-1.52344219 6.52077738 0 12.92145711 2.54203562 17.72085667 7.28694644l74.69425369 73.83801219c4.75714203 4.70265437 11.13335932 7.27582627 17.69972845 7.27471415 1.52455431 0 3.06022772-0.13900055 4.58700628-0.42144908 46.08023087-8.54017133 200.41825745-38.01821945 221.14818948-53.41944071 19.14199412-14.2202759 26.98382848-49.95555577 17.49956748-85.32832489-9.06058876-33.81040578-68.89961425-142.91554707-190.65821959-142.91554708-5.59670381 0-11.32907178 0.23129616-17.18820694 0.70945716-133.32675817 10.89650253-288.40648921 102.1095393-449.41207645 258.35242386C137.93158609 352.96007970999995 48.23198348 557.1613664500001 63.54758082 677.85578663c13.76435526 108.50799585 111.13120799 149.02821872 137.8348122 155.33994029C210.19166844 835.2773934100001 218.99983283 836.42164298 227.49330029 836.42164298M227.49330029 889.79771621c-12.39881651 0-25.31360303-1.56680967-38.38740403-4.65706264-23.81351222-5.6289522-61.4436442-21.79189403-95.64769808-50.2747001-46.66514401-38.86000547-75.31808691-90.83050775-82.86079301-150.29256487-4.59145479-36.18564096-1.70469811-77.46202593 8.58242777-122.68045576 9.73223687-42.77980998 25.78620339-87.91484013 47.71709688-134.15075127 22.19777443-46.79747181 49.71647581-93.22464691 81.79327147-137.99382775 33.71811018-47.05990423 71.75968209-91.24973258 113.0694265-131.33961155 83.92053078-81.43743131 166.53112258-145.89571149 245.53883105-191.5834053 83.27779359-48.15744993 162.91489373-75.63389487 236.69841827-81.66316683 7.19798614-0.58824844 14.4448993-0.88737668 21.53613328-0.88737668 66.31754643 0 126.98612566 25.77063471 175.44826337 74.52634111 38.23950864 38.47080479 59.86682538 82.19470445 66.76790752 107.94754731 6.77542493 25.27023446 7.69949851 51.32776618 2.67213917 75.34811105-6.00035995 28.6651752-19.79696252 51.71029411-39.89861391 66.64336244-11.86394469 8.81372393-30.07741673 18.39695329-121.39053397 38.55642873-46.96427225 10.36830239-96.50727594 19.79918678-121.85979795 24.49850585-4.70710288 0.87292121-9.52429319 1.31549743-14.31368364 1.31549742-20.80777216 0.00111213-40.42125561-8.05756292-55.2242193-22.69150301l-61.69717962-60.98994672c-58.38341539 24.15156054-115.17222121 62.55675749-165.18004146 111.84177618-53.44501636 52.67217563-96.66962789 115.47134945-125.47936318 182.18699248l69.25656653 69.9871519c19.64017121 19.84700276 27.29296477 48.91361094 19.97154676 75.85407195-6.26390451 23.04845529-18.68718561 67.99444464-31.50522693 110.0625743-24.31836098 79.81502076-33.87712574 96.37161177-41.58440914 106.4874887C299.91239929 874.19188653 266.52455362 889.79771621 227.49330029 889.79771621L227.49330029 889.79771621z"  horiz-adv-x="1025" />

    
    <glyph glyph-name="10" unicode="&#58895;" d="M865.166222 192.39822200000003V452.721778v12.743111c-5.461333 148.366222-113.777778 282.168889-256.682666 318.577778v6.371555C608.483556 847.758222 569.344 896 512 896c-58.254222 0-96.483556-48.241778-96.483556-105.585778v-6.371555c-147.456-40.049778-246.670222-166.570667-256.682666-318.577778v-273.066667L62.350222 93.18399999999997v-92.842667h292.181334c16.384-73.728 80.099556-128.341333 157.468444-128.341333s141.084444 54.613333 157.468444 128.341333h292.181334V93.18399999999997L865.166222 192.39822200000003zM512 835.015111c19.114667 0 31.857778-16.384 31.857778-38.229333h-63.715556c0 21.845333 12.743111 38.229333 31.857778 38.229333z m0-899.299555c-41.870222 0-77.368889 25.486222-90.112 64.625777h180.224c-12.743111-39.139556-48.241778-64.625778-90.112-64.625777z m385.024 128.341333H126.976v3.640889l95.573333 99.214222V446.350222v16.384c0 138.353778 152.007111 269.425778 289.450667 269.425778 139.264 0 288.540444-130.161778 288.540444-269.425778v-295.822222l96.483556-99.214222v-3.640889z"  horiz-adv-x="1024" />

    
    <glyph glyph-name="anquan" unicode="&#58903;" d="M371.288329 434.539454l-43.319532-43.319532 161.910591-162.217822 242.40504 242.405041-43.319532 43.319532-199.085508-198.778278-118.591059 118.591059zM889.893789 749.450945S770.688269 753.444944 526.747075 887.70477L512 896l-14.747075-8.29523C253.311731 753.444944 134.720672 749.450945 134.720672 749.450945H103.9976v-399.39994c0-178.50105 103.229523-268.519652 218.441044-352.393639l189.561356-122.892289 189.561356 122.892289c115.211521 83.873987 218.441044 173.892589 218.441044 352.393639v399.39994z m-30.723072-401.243324c0-136.10321-67.89799-211.374737-191.711971-301.70057l-153.615362-101.078908-153.615361 101.078908C233.341734 136.52565300000003 165.443744 211.79718000000003 165.443744 347.90039V691.3843380000001c50.693069 8.29523 165.90459 36.867687 346.556256 134.567057 180.651665-97.69937 295.863186-126.271827 346.556256-134.567057z"  horiz-adv-x="1024" />

    
    <glyph glyph-name="yuan" unicode="&#58968;" d="M512 384m-512 0a100 100 0 1 1 1024 0 100 100 0 1 1-1024 0Z"  horiz-adv-x="1024" />

    
    <glyph glyph-name="shalou" unicode="&#58933;" d="M929.780025-32.71927900000003H870.19297v87.027181c0 134.074712-68.497928 254.259395-174.819204 319.481914C801.686851 439.061481 870.19297 559.2512839999999 870.19297 693.29016V802.544867h60.139953c21.767802 0 39.441087 18.464748 39.441086 41.219575 0 22.756875-17.673285 41.224695-39.441086 41.224695H96.574912c-21.781113 0-39.445182-18.46782-39.445183-41.21548 0-22.765066 17.66407-41.22879 39.445183-41.22879h63.722527v-109.255731c0-134.030685 68.498952-254.210248 174.809989-319.481914-106.311037-65.250164-174.809989-185.429728-174.809989-319.500344v-87.027181h-64.275425c-21.767802 0-39.441087-18.471915-39.441087-41.219576 0-22.758923 17.667141-41.231862 39.441087-41.231862H929.777977c21.777017 0 39.450302 18.472939 39.450301 41.224695 0 22.755851-17.672261 41.227766-39.448253 41.227767m-138.46718 0H239.17654v87.027181c0 131.798615 85.096133 246.332475 207.163742 279.144927 5.030349 1.104772 9.784248 3.241621 13.992417 6.21908 0.044027 0.03174 0.095221 0.066553 0.139248 0.095221 0.469963 0.334811 0.934807 0.688051 1.392484 1.044363 0.051194 0.039932 0.109556 0.076791 0.155631 0.117747a38.866687 38.866687 0 0 1 4.409874 4.056634c0.356312 0.382933 0.704433 0.764842 1.048458 1.165181 0.076791 0.082935 0.151535 0.174061 0.230375 0.261091 0.344025 0.404435 0.67474 0.81706 1.004431 1.234806 0.060409 0.075768 0.117747 0.144368 0.174061 0.218087 0.363479 0.469963 0.71672 0.947094 1.06484 1.430368 0.012287 0.025597 0.030717 0.047099 0.044027 0.0686a39.579311 39.579311 0 0 1 2.046747 3.209881c0.088054 0.152559 0.164846 0.299998 0.258019 0.455629 0.198634 0.365527 0.398291 0.722863 0.586687 1.092485 0.16075 0.30307 0.312285 0.612283 0.460748 0.921497 0.101365 0.204777 0.199658 0.407506 0.295903 0.618427 0.199658 0.407506 0.381909 0.830371 0.567232 1.247092l0.103413 0.248804a42.706257 42.706257 0 0 1 2.169613 26.704977c-2.095893 8.688691-6.67778 16.003328-12.73611 21.352105-0.139248 0.125938-0.277473 0.246756-0.413649 0.369623-0.230374 0.195562-0.469963 0.389076-0.704434 0.586686-0.307166 0.246756-0.616379 0.504775-0.937879 0.751532-0.057338 0.041979-0.117747 0.086006-0.17406 0.130033a38.678292 38.678292 0 0 1-13.702657 6.735118c-122.81914 32.274913-208.637113 147.207065-208.637113 279.50124V802.544867H791.312845v-109.255731c0-132.294175-85.808757-247.226327-208.671925-279.549363-19.285904-5.039564-31.6442-24.129905-29.600525-44.229798 0.009215-0.069624 0.022525-0.135153 0.025598-0.204777 0.060409-0.590782 0.130033-1.173373 0.218087-1.765178 0.021502-0.135153 0.047099-0.268258 0.0686-0.409555 0.082935-0.526277 0.169965-1.048459 0.269282-1.577807 0.030717-0.136177 0.065529-0.274401 0.095222-0.41365 0.095221-0.464844 0.182252-0.934807 0.295903-1.400675 0.169965-0.695218 0.360408-1.369959 0.555969-2.043675l0.069624-0.223207c0.164846-0.548803 0.334811-1.091462 0.523206-1.622858 0.030717-0.091126 0.060409-0.169965 0.091126-0.255971 0.187371-0.539588 0.388053-1.06996 0.595901-1.600333 0.022525-0.060409 0.053242-0.120818 0.078839-0.183276 0.225255-0.568256 0.464844-1.126274 0.713648-1.677124 0.007167-0.022525 0.016382-0.038908 0.025597-0.057337a41.129473 41.129473 0 0 1 3.870287-6.75662c0.009215-0.009215 0.012287-0.016382 0.01843-0.025597 0.337882-0.474059 0.681908-0.934807 1.0331-1.392484 0.113651-0.147439 0.231398-0.290783 0.348121-0.438223 0.239589-0.304094 0.486346-0.605116 0.733102-0.896923a30.665365 30.665365 0 0 1 1.079175-1.229687 32.507335 32.507335 0 0 1 0.965524-1.025933 39.004911 39.004911 0 0 1 12.972627-8.810533c0.188395-0.077815 0.372694-0.156654 0.561089-0.226278 0.316381-0.130033 0.630713-0.251876 0.956309-0.369623 0.365527-0.135153 0.739245-0.261091 1.104772-0.381909 0.17918-0.056314 0.347097-0.120818 0.530373-0.17918 0.621498-0.204777 1.253236-0.381909 1.891116-0.546755C705.521494 301.549586 791.312845 186.62357799999995 791.312845 54.30687799999998v-87.026157m0 0z"  horiz-adv-x="1024" />

    
    </font>
</defs>
</svg>
